<?xml version="1.0" encoding="utf-8"?>
<!-- Generator: Adobe Illustrator 17.0.0, SVG Export Plug-In . SVG Version: 6.00 Build 0)  -->
<!DOCTYPE svg PUBLIC "-//W3C//DTD SVG 1.1//EN" "http://www.w3.org/Graphics/SVG/1.1/DTD/svg11.dtd">
<svg version="1.1" id="Layer_1" xmlns="http://www.w3.org/2000/svg" xmlns:xlink="http://www.w3.org/1999/xlink" x="0px" y="0px"
	 width="120px" height="50px" viewBox="0 0 120 50" enable-background="new 0 0 120 50" xml:space="preserve">
<g>
	<path d="M64.662,10.59c-0.749,0.746-1.558,0.665-1.812-0.181c-0.169-0.563,0.018-1.07,0.485-1.312
		c0.504-0.262,1.027-0.146,1.407,0.35c0.55,0.718,0.631,1.511,0.28,2.337c-0.396,0.933-1.101,1.492-2.117,1.602
		c-1.003,0.109-1.72-0.374-2.203-1.204c-0.253-0.434-0.415-0.921-0.597-1.337c-0.294,0.55-0.538,1.188-0.936,1.71
		c-0.793,1.042-2.233,1.129-3.277,0.277c-1.046-0.853-1.283-2.369-0.514-3.354c0.344-0.44,0.774-0.652,1.336-0.42
		c0.506,0.208,0.752,0.621,0.602,1.114c-0.103,0.34-0.385,0.788-0.674,0.866c-0.336,0.091-0.766-0.169-1.179-0.284
		c-0.219,0.55,0.121,1.432,0.893,1.977c0.747,0.527,1.683,0.567,2.267-0.086c0.46-0.516,0.808-1.183,1.037-1.842
		c0.357-1.027,0.302-2.113,0.178-3.248c-0.736,0.237-1.418,0.393-2.202-0.198c0.333-0.033,0.488-0.058,0.644-0.063
		c0.925-0.029,1.397-0.902,0.917-1.702C58.614,4.62,57.7,4.255,56.781,4.625c-0.973,0.392-1.526,1.401-1.304,2.381
		c0.674-0.674,1.342-0.698,1.711-0.062c0.3,0.516,0.183,1.178-0.261,1.48c-0.493,0.335-1.124,0.221-1.527-0.276
		c-1.096-1.348-0.194-3.57,1.587-3.908c0.888-0.169,1.418,0.029,2.43,0.835c-0.241-0.89-0.483-1.78-0.724-2.67
		c0.044-0.031,0.088-0.063,0.132-0.094c0.401,0.5,0.803,0.999,1.246,1.552c0.426-0.534,0.834-1.046,1.242-1.557
		c0.049,0.026,0.098,0.051,0.147,0.077c-0.241,0.88-0.483,1.76-0.724,2.64c0.034,0.022,0.068,0.045,0.101,0.067
		c0.111-0.096,0.225-0.188,0.334-0.287c0.918-0.84,2.277-0.809,3.218,0.075c0.934,0.876,1.104,2.298,0.387,3.226
		C64.392,8.6,63.819,8.75,63.315,8.486c-0.453-0.237-0.684-0.789-0.442-1.314c0.125-0.272,0.433-0.611,0.686-0.636
		c0.355-0.035,0.735,0.195,1.121,0.317c0.224-0.548-0.118-1.445-0.882-1.986c-0.785-0.556-1.693-0.504-2.385,0.136
		c-0.674,0.624-0.889,1.284-0.419,1.826c0.285,0.329,0.827,0.436,1.241,0.636c-0.242,0.374-0.658,0.43-1.941,0.116
		c-0.11,1.695-0.172,3.349,0.916,4.784c0.592,0.781,1.491,0.947,2.329,0.518C64.42,12.431,64.884,11.483,64.662,10.59z"/>
	<path d="M52.249,19.856c1.76-1.078,14.267-1.043,15.454-0.169c-0.416,0.483-0.821,0.978-1.257,1.443
		c-0.124,0.132-0.342,0.249-0.517,0.249c-3.896,0.014-7.793,0.015-11.69-0.002c-0.19-0.001-0.446-0.134-0.555-0.288
		C53.31,20.564,53.096,19.887,52.249,19.856z"/>
	<path d="M65.139,13.385c0.348,1.598,1.047,1.951,2.729,1.408c0.045,0.686,0.476,0.88,1.099,0.932
		c0.477,0.04,0.952,0.195,1.405,0.362c0.14,0.052,0.204,0.311,0.302,0.475c-0.174,0.005-0.355,0.042-0.522,0.011
		c-0.848-0.156-1.69-0.451-2.54-0.476c-3.934-0.119-7.87-0.214-11.805-0.212c-1.622,0.001-3.245,0.256-4.865,0.423
		c-0.327,0.034-0.637,0.204-0.962,0.282c-0.154,0.037-0.324,0.004-0.487,0.003c0.085-0.17,0.132-0.444,0.262-0.492
		c0.473-0.173,0.967-0.326,1.465-0.382c0.587-0.067,1.052-0.194,1.024-0.909c1.801,0.48,2.49,0.127,2.738-1.422
		c0.8,0.811,1.781,1.102,2.84,1.007c1.179-0.105,1.734-1.021,2.253-1.978c0.511,0.941,1.062,1.863,2.223,1.974
		C63.336,14.489,64.323,14.249,65.139,13.385z"/>
	<path d="M49.212,19.999c-0.416-0.352-0.831-0.705-1.247-1.057l0.017,0.018c-0.257-0.365-0.514-0.729-0.771-1.094l0.017,0.016
		c-0.258-0.415-0.516-0.831-0.773-1.246l0.01,0.019c-0.189-0.497-0.378-0.995-0.568-1.492l0.016,0.02
		c-0.062-0.308-0.125-0.617-0.185-0.915c-1.027-0.12-1.307-0.381-1.29-1.216c0.623-0.113,0.895,0.308,1.222,0.926
		c-0.06-0.447-0.096-0.711-0.13-0.968c-0.952-0.281-1.142-0.519-0.992-1.461c0.384,0.305,0.695,0.551,0.975,0.774
		c0-0.118,0-0.323,0-0.545c-0.567-0.241-1.059-0.543-0.775-1.488c0.336,0.302,0.602,0.541,0.868,0.78
		c0.033-0.001,0.066-0.002,0.099-0.004c-0.111-0.215-0.173-0.483-0.341-0.635c-0.391-0.353-0.584-0.707-0.22-1.315
		c0.259,0.302,0.479,0.558,0.698,0.814c0.043-0.015,0.086-0.031,0.129-0.046c-0.094-0.196-0.151-0.427-0.29-0.583
		c-0.317-0.354-0.433-0.704-0.08-1.259c0.233,0.305,0.421,0.55,0.639,0.835c0.35-0.608-0.925-1.085-0.028-1.762
		c0.146,0.254,0.294,0.512,0.443,0.77c0.033,0.012,0.066,0.023,0.099,0.035c-0.022-0.187,0.013-0.408-0.076-0.553
		c-0.239-0.388-0.307-0.733,0.124-1.162c0.162,0.283,0.303,0.531,0.472,0.826c0.304-0.495-0.56-1.108,0.256-1.56
		c0.101,0.252,0.198,0.496,0.295,0.74c0.038,0.001,0.076,0.002,0.114,0.004C47.913,6,47.849,5.782,47.871,5.572
		c0.027-0.257,0.125-0.508,0.193-0.761c0.075,0.006,0.15,0.012,0.225,0.019c0.071,0.239,0.141,0.477,0.23,0.778
		c0.371-0.397-0.307-1.122,0.524-1.364c0.052,0.244,0.102,0.484,0.163,0.768C49.608,4.68,48.997,3.9,49.823,3.77
		c0.032,0.226,0.063,0.453,0.113,0.808c0.168-0.494,0.297-0.874,0.427-1.254c0.081,0.018,0.163,0.037,0.244,0.055
		C50.62,3.6,50.633,3.82,50.653,4.152c0.195-0.433,0.35-0.779,0.506-1.125c0.065,0.019,0.13,0.039,0.195,0.058
		c0.018,0.206,0.037,0.412,0.055,0.618c0.041,0.003,0.083,0.006,0.124,0.009c0.038-0.185,0.067-0.372,0.118-0.554
		c0.052-0.184,0.125-0.362,0.189-0.542c0.094,0.078,0.189,0.156,0.283,0.235c0.009,0.192,0.018,0.384,0.028,0.593
		c0.195-0.282,0.382-0.552,0.569-0.821c0.059,0.032,0.119,0.064,0.178,0.096c-0.022,0.172-0.044,0.344-0.067,0.517
		c0.335-0.039,0.672-0.078,1.01-0.118c0.014,0.077,0.027,0.153,0.041,0.23c-0.185,0.059-0.367,0.158-0.555,0.169
		c-1.987,0.116-3.535,1.09-4.878,2.47c-0.026,0.027-0.026,0.079-0.039,0.12l0.017-0.019c-0.121,0.077-0.262,0.135-0.361,0.235
		c-2.298,2.326-3.024,6.761-1.589,9.716c0.06,0.123,0.182,0.216,0.275,0.322c0.012,0.058,0.023,0.116,0.035,0.174
		c0.165,0.298,0.33,0.596,0.495,0.895l-0.02-0.019c0.86,1.584,2.204,2.647,3.756,3.485c0.236,0.128,0.479,0.242,0.662,0.5
		c-0.289-0.124-0.578-0.248-0.866-0.371c-0.897,0.908-1.492,0.977-2.184,0.255c0.41-0.559,0.586-0.624,1.697-0.555
		c-0.424-0.256-0.719-0.434-1.013-0.612C49.28,20.075,49.246,20.037,49.212,19.999z"/>
	<path d="M72.025,18.956c-0.402,0.352-0.805,0.704-1.207,1.055c-0.024,0.034-0.05,0.065-0.079,0.094
		c-0.3,0.181-0.6,0.362-0.901,0.542c0.649-0.03,1.205,0.034,1.593,0.586c-0.528,0.795-1.487,0.654-2.184-0.209
		c-0.292,0.121-0.59,0.244-0.889,0.367c-0.02-0.046-0.04-0.092-0.061-0.138c0.173-0.084,0.346-0.167,0.519-0.251
		c1.45-0.706,2.664-1.698,3.622-2.997c0.135-0.182,0.224-0.398,0.334-0.599l-0.02,0.019c0.188-0.338,0.377-0.676,0.565-1.013
		l-0.01,0.024c0.731-1.162,0.963-2.458,0.987-3.799c0.028-1.535-0.2-3.018-1.047-4.346l0.023,0.022
		c-0.375-0.874-0.828-1.688-1.66-2.22l0.02,0.022c-0.134-0.181-0.243-0.39-0.406-0.54c-1.115-1.02-2.429-1.682-3.884-2.057
		c-0.371-0.096-0.773-0.073-1.161-0.104c0.011-0.101,0.022-0.203,0.032-0.304c0.321,0.043,0.642,0.086,0.995,0.134
		c-0.024-0.154-0.051-0.323-0.077-0.492c0.055-0.04,0.11-0.08,0.165-0.12c0.193,0.251,0.385,0.502,0.58,0.757
		c0-0.137,0-0.317,0-0.496c0.071-0.033,0.142-0.066,0.213-0.099c0.163,0.295,0.326,0.591,0.528,0.956
		c0.023-0.239,0.042-0.435,0.062-0.646c0.71-0.007,0.335,0.716,0.708,0.995c0.019-0.264,0.034-0.475,0.05-0.705
		c0.747,0.061,0.333,0.762,0.663,1.118c0.05-0.284,0.089-0.505,0.128-0.725c0.812,0.117,0.236,0.886,0.612,1.264
		c0.053-0.311,0.092-0.54,0.136-0.799c0.831,0.207,0.247,0.937,0.522,1.445c0.113-0.387,0.183-0.626,0.253-0.866
		c0.936,0.298-0.011,1.061,0.463,1.469c0.091-0.287,0.172-0.54,0.265-0.831c0.858,0.417,0.003,1.07,0.294,1.582
		c0.16-0.308,0.286-0.551,0.435-0.837c0.449,0.366,0.426,0.704,0.194,1.1c-0.097,0.165-0.11,0.38-0.161,0.572
		c0.05,0.016,0.099,0.032,0.149,0.047c0.137-0.271,0.273-0.542,0.454-0.899c0.429,0.512,0.35,0.865,0.064,1.246
		c-0.114,0.153-0.141,0.371-0.081,0.607c0.187-0.262,0.375-0.524,0.612-0.856c0.355,0.568,0.242,0.918-0.077,1.271
		c-0.143,0.158-0.213,0.381-0.316,0.575c0.046,0.025,0.091,0.05,0.137,0.075c0.228-0.264,0.457-0.528,0.712-0.823
		c0.39,0.607,0.167,0.96-0.225,1.307c-0.165,0.146-0.248,0.386-0.254,0.653c0.269-0.244,0.538-0.488,0.861-0.78
		c0.223,0.875,0.099,1.084-0.754,1.465c0,0.198,0,0.406,0,0.585c0.283-0.246,0.58-0.503,0.928-0.805
		c0.266,0.865,0.001,1.213-0.924,1.414c-0.041,0.276-0.083,0.562-0.11,0.743c0.316-0.248,0.67-0.525,1.086-0.852
		c0.217,0.94-0.138,1.302-1.184,1.401c-0.061,0.298-0.124,0.606-0.187,0.914l0.016-0.02c-0.192,0.498-0.383,0.996-0.575,1.494
		l0.011-0.019c-0.26,0.418-0.519,0.836-0.779,1.254l0.018-0.015c-0.249,0.347-0.498,0.695-0.747,1.042
		C72.059,18.926,72.043,18.942,72.025,18.956z"/>
	<path d="M49.253,14.379c0.337,0.65,0.916,0.938,1.547,0.769c0.54-0.145,0.886-0.639,0.82-1.34
		c-0.128-1.358-0.765-2.456-1.894-3.226c-0.59-0.402-1.148-0.325-1.56,0.11c-0.435,0.459-0.465,1.07-0.146,1.568
		c0.287-0.155,0.567-0.433,0.831-0.418c0.395,0.023,0.625,0.381,0.502,0.793c-0.132,0.441-0.478,0.567-0.91,0.408
		c-0.707-0.26-1.063-1.145-0.775-1.912c0.309-0.822,1.11-1.195,1.897-0.851c0.303,0.133,0.57,0.348,0.867,0.534
		c0-0.361-0.039-0.712,0.008-1.051c0.109-0.796,0.652-1.238,1.44-1.222c0.757,0.016,1.422,0.582,1.512,1.288
		c0.07,0.547-0.209,0.98-0.653,0.974c-0.448-0.006-0.661-0.309-0.648-0.707c0.018-0.569,0.446-0.578,0.883-0.512
		c-0.292-0.646-0.842-0.946-1.459-0.81c-0.591,0.13-0.95,0.576-0.906,1.271c0.085,1.345,0.722,2.42,1.777,3.233
		c0.581,0.447,1.193,0.422,1.626,0.017c0.474-0.443,0.527-1.079,0.194-1.641c-0.27,0.16-0.521,0.397-0.802,0.44
		c-0.149,0.022-0.429-0.264-0.502-0.465c-0.061-0.169,0.031-0.533,0.163-0.601c0.227-0.118,0.577-0.17,0.809-0.079
		c0.706,0.277,0.987,1.197,0.656,1.95c-0.327,0.747-1.1,1.08-1.838,0.757c-0.318-0.139-0.603-0.354-0.904-0.535
		c0,0.391,0.049,0.774-0.01,1.14c-0.119,0.73-0.721,1.176-1.453,1.142c-0.76-0.036-1.419-0.619-1.482-1.324
		c-0.041-0.467,0.065-0.875,0.613-0.935c0.453-0.05,0.652,0.255,0.681,0.661C50.168,14.232,49.887,14.404,49.253,14.379z"/>
	<path d="M70.9,14.345c-0.479,0.097-0.927,0.033-0.869-0.549c0.024-0.24,0.365-0.585,0.613-0.636
		c0.41-0.084,0.632,0.256,0.672,0.667c0.071,0.722-0.514,1.416-1.306,1.554c-0.735,0.129-1.462-0.29-1.606-1.004
		c-0.081-0.4-0.015-0.83-0.015-1.274c-0.338,0.199-0.64,0.427-0.977,0.566c-0.738,0.304-1.497-0.058-1.808-0.82
		c-0.302-0.738-0.013-1.592,0.653-1.915c0.367-0.179,0.778-0.182,0.926,0.21c0.089,0.236-0.035,0.671-0.221,0.864
		c-0.307,0.319-0.672,0.103-0.904-0.467c-0.41,0.498-0.43,1.107-0.054,1.602c0.345,0.454,0.902,0.568,1.484,0.304
		c1.062-0.482,2.181-2.42,2.06-3.583c-0.058-0.556-0.321-0.957-0.899-1.09c-0.581-0.134-1.082,0.111-1.492,0.749
		c0.053,0.021,0.104,0.061,0.146,0.053c0.43-0.085,0.785,0.057,0.736,0.51c-0.028,0.257-0.328,0.632-0.566,0.685
		c-0.437,0.098-0.68-0.245-0.717-0.688c-0.06-0.726,0.551-1.429,1.325-1.532c0.837-0.111,1.503,0.344,1.615,1.147
		c0.049,0.35,0.008,0.712,0.008,1.118c0.293-0.182,0.553-0.383,0.844-0.518c0.761-0.353,1.566-0.033,1.902,0.729
		c0.341,0.775,0.017,1.7-0.702,1.998c-0.421,0.175-0.823,0.087-0.912-0.356c-0.049-0.241,0.159-0.674,0.377-0.799
		c0.437-0.248,0.683,0.098,0.805,0.516c0.433-0.558,0.428-1.169-0.001-1.661c-0.384-0.441-0.933-0.559-1.494-0.198
		c-1.234,0.794-1.914,1.952-1.988,3.423c-0.033,0.65,0.352,1.108,0.898,1.212C70.07,15.284,70.601,14.994,70.9,14.345z"/>
	<path d="M64.54,17.796c0.52,0.271,0.89,0.465,1.269,0.662c0.07-0.221,0.125-0.396,0.163-0.517
		c-0.342-0.055-0.679-0.109-1.015-0.163c0.004-0.099,0.008-0.198,0.012-0.297c0.333-0.018,0.667-0.036,1.022-0.055
		c-0.017-0.112-0.044-0.286-0.081-0.533c-0.452,0.169-0.875,0.328-1.357,0.508c1.195-1.127,1.986-1.087,3.118,0.22
		c-0.469-0.253-0.811-0.437-1.18-0.636c-0.125,0.175-0.239,0.334-0.353,0.494c0.174,0.109,0.336,0.211,0.499,0.313
		c-0.156,0.017-0.311,0.035-0.519,0.058c0.079,0.198,0.154,0.385,0.248,0.62c0.403-0.157,0.809-0.315,1.275-0.496
		C66.459,19.115,65.641,19.083,64.54,17.796z"/>
	<path d="M60.043,17.526c0.175,0.253,0.286,0.415,0.428,0.62c0.368-0.176,0.72-0.343,1.15-0.548
		c-1.069,1.187-1.842,1.217-3.068,0.058c0.52,0.214,0.888,0.365,1.285,0.529c0.057-0.208,0.105-0.381,0.141-0.512
		c-0.34-0.029-0.683-0.059-1.026-0.089c-0.004-0.103-0.009-0.206-0.013-0.309c0.342-0.039,0.684-0.077,1.034-0.117
		c-0.025-0.097-0.07-0.27-0.134-0.514c-0.419,0.182-0.813,0.352-1.241,0.538c0.974-1.125,1.92-1.165,2.852-0.055
		c-0.398-0.173-0.698-0.303-1.022-0.444c-0.114,0.194-0.218,0.37-0.328,0.557c0.211,0.058,0.384,0.105,0.558,0.153
		c-0.014,0.057-0.029,0.114-0.043,0.172C60.459,17.553,60.302,17.543,60.043,17.526z"/>
	<path d="M60.079,0.551c0.251,0.343,0.558,0.764,0.839,1.148c-0.278,0.548-0.604,1.192-0.841,1.66
		c-0.228-0.46-0.544-1.096-0.828-1.669C59.513,1.327,59.832,0.89,60.079,0.551z"/>
	<path d="M54.161,17.868c0.002,0.046-0.012,0.101,0.009,0.127c0.103,0.124,0.215,0.239,0.352,0.389
		c0.319-0.177,0.641-0.355,1.069-0.593c-0.995,1.251-1.783,1.32-3.009,0.244c0.522,0.183,0.902,0.317,1.308,0.459
		c0.036-0.225,0.064-0.399,0.093-0.576c-0.34,0-0.685,0-1.03,0c-0.015-0.089-0.029-0.178-0.044-0.267
		c0.266-0.05,0.531-0.128,0.799-0.141c0.297-0.014,0.596,0.031,0.945,0.172C54.503,17.739,54.353,17.795,54.161,17.868z"/>
	<path d="M70.739,20.105c0.029-0.029,0.055-0.06,0.079-0.094c0.638-0.287,1.276-0.615,1.899,0.031
		C72.246,20.91,71.269,20.936,70.739,20.105z"/>
	<path d="M49.212,19.999c0.034,0.038,0.068,0.076,0.102,0.114c-0.557,0.803-1.362,0.805-2.014-0.024
		C47.91,19.388,48.562,19.717,49.212,19.999z"/>
	<path d="M72.025,18.956c0.018-0.014,0.035-0.03,0.049-0.047c0.536-0.375,1.077-0.683,1.697-0.157
		c-0.337,0.699-0.839,0.925-1.48,0.637C72.164,19.331,72.112,19.105,72.025,18.956z"/>
	<path d="M69.583,18.784c0.607,0.737,0.434,1.398-0.456,1.738C68.776,19.677,68.917,19.142,69.583,18.784z"/>
	<path d="M47.982,18.96l-0.017-0.018c-0.061,0.15-0.081,0.382-0.189,0.436c-0.616,0.303-1.13,0.088-1.5-0.584
		C46.859,18.314,47.203,18.348,47.982,18.96z"/>
	<path d="M50.93,20.521c-0.89-0.311-1.073-0.965-0.486-1.735C51.114,19.114,51.262,19.641,50.93,20.521z"/>
	<path d="M72.804,17.881c0.34-0.228,0.659-0.508,1.03-0.663c0.21-0.087,0.506,0.032,0.792,0.062
		c-0.41,1.014-1.212,1.236-1.802,0.585C72.821,17.866,72.804,17.881,72.804,17.881z"/>
	<path d="M49.455,18.008c0.565,0.442,0.614,0.884,0.19,1.709C48.82,19.304,48.745,18.631,49.455,18.008z"/>
	<path d="M47.211,17.866c-0.582,0.647-1.388,0.423-1.763-0.512c0.442-0.265,0.862-0.236,1.263,0.082
		c0.177,0.14,0.343,0.295,0.515,0.445C47.228,17.882,47.211,17.866,47.211,17.866z"/>
	<path d="M70.425,19.717c-0.443-0.738-0.403-1.235,0.137-1.706C71.291,18.575,71.238,19.24,70.425,19.717z"/>
	<path d="M73.572,16.646c0.386-0.499,0.748-1.045,1.709-0.703c-0.263,0.316-0.435,0.697-0.711,0.803
		c-0.272,0.104-0.651-0.07-0.985-0.121C73.583,16.627,73.572,16.646,73.572,16.646z"/>
	<path d="M71.525,18.754c-0.544-0.679-0.574-1.083-0.122-1.647C72.173,17.535,72.222,18.203,71.525,18.754z"/>
	<path d="M48.612,17.106c0.478,0.517,0.461,0.896-0.071,1.638C47.828,18.266,47.857,17.594,48.612,17.106z"/>
	<path d="M46.455,16.636c-0.624,0.512-1.305,0.217-1.549-0.673c0.649-0.299,0.892-0.191,1.558,0.69
		C46.465,16.655,46.455,16.636,46.455,16.636z"/>
	<path d="M55.517,17.384c-0.389-0.153-0.778-0.306-1.153-0.453c-0.116,0.194-0.206,0.345-0.348,0.583
		c-0.096-0.23-0.159-0.378-0.242-0.577c-0.381,0.201-0.766,0.403-1.17,0.616c0.555-0.808,1.211-1.148,1.863-0.894
		c0.384,0.15,0.719,0.427,1.074,0.65C55.548,17.313,55.524,17.365,55.517,17.384z"/>
	<path d="M74.13,15.172c0.346-0.405,0.634-0.915,1.31-0.724c0.016,0.685-0.367,1.123-0.981,1.078
		c-0.113-0.008-0.209-0.243-0.313-0.374C74.146,15.152,74.13,15.172,74.13,15.172z"/>
	<path d="M45.897,15.163c0.061,0.32-0.089,0.418-0.387,0.374c-0.599-0.088-0.932-0.416-0.977-1.05
		c0.74-0.274,1.022,0.286,1.38,0.695C45.913,15.183,45.897,15.163,45.897,15.163z"/>
	<path d="M72.773,17.407c-0.111,0.092-0.222,0.185-0.332,0.276c-0.64-0.607-0.72-0.997-0.322-1.58
		c0.693,0.212,0.662,0.769,0.633,1.324C72.753,17.427,72.773,17.407,72.773,17.407z"/>
	<path d="M47.282,17.43c-0.01-0.544-0.063-1.109,0.626-1.321c0.419,0.536,0.367,0.854-0.276,1.583
		c-0.121-0.092-0.245-0.186-0.369-0.28C47.262,17.411,47.282,17.43,47.282,17.43z"/>
	<path d="M73.308,16.438l0.01-0.024c-0.631,0.076-0.991-0.568-0.734-1.315C73.312,15.255,73.435,15.483,73.308,16.438z"/>
	<path d="M46.787,16.535c-0.012-0.058-0.023-0.116-0.035-0.174c-0.16-0.83-0.053-1.037,0.668-1.283
		C47.73,15.738,47.522,16.217,46.787,16.535z"/>
	<path d="M47.106,14.028c0.161,0.66-0.022,0.974-0.723,1.237C46.122,14.483,46.33,14.126,47.106,14.028z"/>
	<path d="M72.909,14.022c0.79,0.11,0.967,0.393,0.795,1.219C73.059,15.118,72.814,14.76,72.909,14.022z"/>
	<path d="M46.101,14.074c-0.188-0.775,0.013-1.06,0.802-1.136C47.026,13.563,46.866,13.79,46.101,14.074z"/>
	<path d="M73.125,12.919c0.818,0.134,0.969,0.347,0.843,1.14C73.241,13.858,73.046,13.607,73.125,12.919z"/>
	<path d="M73.17,11.91c0.739-0.051,0.963,0.172,0.925,0.926C73.389,12.769,73.158,12.538,73.17,11.91z"/>
	<path d="M45.936,12.879c-0.012-0.783,0.167-0.972,0.899-1C46.934,12.475,46.742,12.696,45.936,12.879z"/>
	<path d="M73.017,10.903c0.778-0.113,0.95,0.016,1.093,0.807C73.555,11.712,73.145,11.559,73.017,10.903z"/>
	<path d="M47.018,10.891c-0.078,0.651-0.514,0.78-1.017,0.845C45.957,11.013,46.203,10.8,47.018,10.891z"/>
	<path d="M47.199,9.971c-0.115,0.583-0.544,0.641-1.021,0.663C46.209,9.917,46.499,9.728,47.199,9.971z"/>
	<path d="M72.823,9.92c0.654-0.194,0.979,0.034,1.143,0.719C73.424,10.613,72.994,10.579,72.823,9.92z"/>
	<path d="M72.528,9.026c0.751-0.178,0.859-0.124,1.1,0.535C73.143,9.645,72.733,9.639,72.528,9.026z"/>
	<path d="M47.558,9.263c-0.354,0.142-0.707,0.283-1.174,0.471c0.234-0.821,0.419-0.912,1.081-0.696
		C47.496,9.113,47.527,9.188,47.558,9.263z"/>
	<path d="M73.248,8.293c-0.085,0.13-0.189,0.379-0.252,0.369c-0.305-0.048-0.598-0.166-0.984-0.287
		c0.551-0.556,0.897-0.211,1.259-0.061C73.271,8.314,73.248,8.293,73.248,8.293z"/>
	<path d="M47.927,8.446c-0.355,0.097-0.709,0.194-1.155,0.316c0.276-0.763,0.498-0.846,1.107-0.541
		C47.895,8.296,47.911,8.371,47.927,8.446z"/>
	<path d="M72.714,7.866c-0.339-0.058-0.678-0.116-1.14-0.196C72.169,7.119,72.372,7.149,72.714,7.866z"/>
	<path d="M48.343,7.694C48,7.749,47.658,7.804,47.172,7.882c0.352-0.681,0.703-0.729,1.135-0.459
		C48.319,7.513,48.331,7.604,48.343,7.694z"/>
	<path d="M72.325,7.023c-0.441,0-0.762,0-1.129,0C71.475,6.402,71.735,6.396,72.325,7.023z"/>
	<path d="M47.792,6.955c0.47-0.524,0.535-0.531,1.07-0.135C48.569,7.249,48.216,7.159,47.792,6.955z"/>
	<path d="M48.426,6.088l-0.017,0.019c0.363-0.219,0.715-0.342,1.041,0.137C49.039,6.524,48.689,6.646,48.426,6.088z"/>
	<path d="M71.631,6.115l-0.02-0.022c-0.269,0.462-0.508,0.49-0.997,0.108C70.923,5.784,71.269,5.862,71.631,6.115z"/>
	<path d="M70.966,5.756c-0.301,0.032-0.602,0.065-0.902,0.097c-0.014-0.109-0.029-0.217-0.043-0.326
		c0.301-0.045,0.602-0.09,0.904-0.135C70.938,5.514,70.952,5.635,70.966,5.756z"/>
	<path d="M49.104,5.415c0.306,0.03,0.612,0.06,0.918,0.09c-0.009,0.11-0.018,0.22-0.026,0.329c-0.303-0.018-0.607-0.036-0.91-0.054
		C49.091,5.659,49.098,5.537,49.104,5.415z"/>
</g>
<path d="M30.16,32.74c-0.148-2.343-2.222-2.924-3.78-1.595c0.499,0.298,0.975,0.572,1.441,0.861c0.959,0.593,1.684,1.397,1.483,2.58
	c-0.2,1.175-1.073,1.841-2.199,2.154c-0.605,0.168-1.217,0.309-1.627,0.412c0.569,0.48,1.397,0.973,1.944,1.683
	c1.118,1.452,0.762,3.241-0.727,4.285c-1.183,0.83-2.52,1.178-3.953,1.372c-1.906,0.257-3.699-0.134-5.529-0.53
	c-0.805-0.174-1.678-0.004-2.516-0.059c-1.157-0.076-1.747-0.772-1.691-1.898c0.967,0.393,1.936,0.783,2.901,1.182
	c0.428,0.177,0.792,0.191,1.086-0.25c0.883-1.325,1.808-2.622,2.665-3.963c1.166-1.823,2.237-3.709,3.446-5.501
	c0.552-0.818,1.339-1.478,2.044-2.235c-1.899-0.634-3.858-0.545-5.804-0.084c-4.039,0.957-6.95,3.444-8.929,6.99
	c-1.485,2.66-1.931,5.54-0.725,8.447c0.741,1.786,2.436,2.938,4.685,3.013c1.319,0.044,2.65-0.275,3.868-0.419
	c0.096-0.108,0.049-0.008-0.028,0.024c-2.9,1.234-5.891,1.109-8.322-0.972c-1.919-1.642-2.553-3.955-2.109-6.492
	c1.074-6.137,5.253-9.222,10.81-10.868c2.056-0.609,4.192-0.655,6.277-0.029c1.055,0.317,1.831-0.402,2.732-0.624
	c1.075-0.264,2.441,0.233,3.035,1.12C31.019,31.911,30.826,32.353,30.16,32.74z M17.244,43.724c0.946,0.156,1.649,0.321,2.361,0.377
	c0.741,0.059,1.49,0.018,2.235,0.012c2.35-0.018,3.827-1.163,4.42-3.418c0.366-1.394-0.318-2.611-1.791-3.187
	c-1.491-0.583-2.063-0.313-2.873,1.228C20.586,40.658,19.593,42.608,17.244,43.724z M22.619,36.742c0.902,0,1.549,0.044,2.186-0.016
	c0.407-0.038,0.804-0.219,1.199-0.357c1.133-0.396,2.065-1.531,2.058-2.493c-0.006-0.939-0.887-1.863-2.342-2.314
	C24.733,33.21,23.722,34.899,22.619,36.742z"/>
<path d="M61.349,46.374c0.346,2.386,3.847,3.733,7.8,3.145c-0.972,0.157-1.951,0.48-2.913,0.434
	c-1.731-0.083-3.507-0.468-4.698-1.797c-1.165-1.3-2.435-2.187-4.127-2.612c-0.625-0.157-1.169-0.72-1.698-1.161
	c-0.646-0.538-0.555-1.078,0.192-1.613c0.554,1.876,1.912,2.692,3.793,3.052c-1.01-2.938-0.491-5.593,1.002-8.103
	c2.004-3.369,5.006-5.41,8.716-6.499c2.44-0.717,4.873-1.002,7.421-0.442c0.785,0.173,1.72-0.383,2.596-0.558
	c1.052-0.211,2.316,0.153,2.882,1.056c0.346,0.552,0.417,1.076-0.338,1.394c-0.671-2.366-1.93-2.888-3.862-1.518
	c0.392,0.22,0.743,0.418,1.095,0.615c2.405,1.35,2.87,3.95,0.859,5.463c-0.931,0.7-2.104,1.16-3.237,1.485
	c-1.058,0.304-2.214,0.259-3.317,0.428c-0.27,0.041-0.598,0.263-0.741,0.498c-2.123,3.489-5.352,5.382-9.189,6.387
	C62.859,46.218,62.096,46.262,61.349,46.374z M76.916,31.336c0.011-0.106,0.023-0.213,0.034-0.319
	c-1.534-0.058-3.105-0.359-4.594-0.127c-3.736,0.583-6.866,2.368-9.174,5.434c-1.982,2.634-3.027,5.525-2.365,8.878
	c0.107,0.541,0.298,0.783,0.881,0.763c2.519-0.087,4.671-1.067,6.522-2.709c2.194-1.946,3.363-4.612,4.772-7.095
	C74.036,34.323,75.286,32.682,76.916,31.336z M73.282,38.807c0.71-0.088,1.237-0.146,1.761-0.22
	c1.503-0.213,2.853-0.728,3.856-1.944c1.65-2.001,1.107-4.25-1.479-5.111C76.088,33.875,74.728,36.265,73.282,38.807z"/>
<path d="M26.696,43.676c0.482-0.404,1.03-0.752,1.433-1.223c0.949-1.11,1.836-2.273,2.73-3.428c0.238-0.308,0.423-0.659,0.604-1.006
	c0.088-0.169,0.187-0.393,0.145-0.558c-0.359-1.421-0.224-1.692,1.334-2.375c-0.216,0.605-0.381,1.166-0.616,1.695
	c-0.245,0.551-0.045,0.896,0.393,1.211c1.414,1.015,1.558,1.592,0.779,3.126c-0.327,0.643-0.686,1.27-1.018,1.91
	c-0.034,0.065,0.016,0.173,0.028,0.263c1.525-0.314,2.563-1.619,5.018-6.287c1.082,0.312,1.29,0.708,0.784,1.668
	c-0.674,1.278-1.402,2.528-2.094,3.797c-0.133,0.243-0.205,0.519-0.388,0.998c3.031-1.173,4.061-3.709,5.323-6.106
	c-0.394-0.062-0.719-0.113-1.044-0.168c-0.014-0.002-0.02-0.048-0.03-0.073c0.024-0.047,0.056-0.137,0.072-0.134
	c1.185,0.197,1.652-0.566,2.158-1.455c1.681-2.952,3.785-5.589,6.515-7.625c1.918-1.43,4.174-2.221,6.582-2.169
	c1.517,0.032,2.925,0.582,3.873,1.963c0.439,0.64,0.266,0.968-0.313,1.301c-1.117-3.01-3.212-3.38-6.087-2.651
	c-3.014,0.764-4.898,2.963-6.566,5.355c-1.131,1.622-2.087,3.366-3.239,5.248c0.747,0,1.316,0,1.885,0c0,0.094,0,0.189,0,0.283
	c-0.336,0.016-0.683,0.092-1.007,0.036c-0.761-0.132-1.198,0.24-1.515,0.854c-0.748,1.446-1.506,2.888-2.228,4.347
	c-0.121,0.244-0.082,0.566-0.117,0.852c0.28,0.018,0.611,0.142,0.831,0.036c0.695-0.335,1.383-0.708,2.005-1.161
	c0.374-0.272,0.622-0.72,1.031-0.976c-0.75,1.288-1.872,2.213-3.244,2.647c-1.54,0.486-2.284-0.424-1.82-2.052
	c-0.798,0.583-1.543,1.219-2.379,1.696c-0.414,0.236-1.097,0.383-1.469,0.196c-0.324-0.163-0.382-0.854-0.54-1.265
	c-0.532,0.368-1.164,0.891-1.872,1.272c-0.949,0.512-1.66,0.043-1.399-0.999c0.242-0.965,0.838-1.838,1.246-2.766
	c0.164-0.373,0.39-0.813,0.319-1.169c-0.07-0.348-0.482-0.628-0.743-0.938c-0.195,0.235-0.404,0.46-0.584,0.707
	c-1.154,1.58-2.282,3.179-3.467,4.735c-0.244,0.321-0.689,0.488-1.041,0.726C26.875,43.9,26.786,43.788,26.696,43.676z"/>
<path d="M97.779,42.389c-0.36,0.966-1.241,1.273-2.09,1.497c-0.902,0.238-0.898-0.674-1.203-1.182
	c-0.931,0.546-1.729,1.728-2.986,0.927c-0.403-0.257-0.501-0.99-0.735-1.495c-0.358,0.297-0.913,0.774-1.489,1.224
	c-0.209,0.163-0.458,0.326-0.71,0.371c-0.493,0.088-1.122,0.287-1.466,0.073c-0.318-0.198-0.337-0.876-0.51-1.411
	c0.024-0.008-0.13,0.042-0.283,0.092l0.025,0.021c1.961-3.192,3.813-6.458,5.917-9.552c1.605-2.36,3.559-4.504,6.159-5.831
	c2.051-1.047,4.253-1.874,6.595-1.188c0.908,0.266,1.734,0.962,2.47,1.609c0.495,0.435,0.542,1.08-0.26,1.443
	c-1.104-3.173-3.358-3.327-6.076-2.635c-2.208,0.562-3.763,2.008-5.23,3.7c-2.463,2.842-3.998,6.227-5.866,9.42
	c-0.578,0.987-1.142,1.983-1.682,2.99c-0.16,0.299-0.22,0.652-0.389,1.176c1.702-0.552,2.743-1.559,3.441-2.886
	c0.732-1.393,1.598-2.646,2.934-3.504c0.368-0.237,0.812-0.398,1.243-0.486c0.772-0.158,1.325,0.096,1.362,0.888
	c0.702-0.291,1.415-0.587,2.128-0.882c0.043,0.072,0.085,0.145,0.128,0.217c-1.119,2.075-2.237,4.151-3.356,6.226
	c0.101,0.073,0.202,0.146,0.303,0.219c0.55-0.34,1.101-0.68,1.651-1.019L97.779,42.389z M96.514,37.239
	c-0.301,0.097-0.6,0.123-0.813,0.272c-1.791,1.257-2.677,3.123-3.348,5.115c-0.061,0.18,0.051,0.559,0.192,0.631
	c0.196,0.1,0.594,0.098,0.733-0.037c0.662-0.645,1.38-1.278,1.861-2.05C95.856,40.021,96.797,38.902,96.514,37.239z"/>
<path d="M97.804,42.41c1.143-0.665,0.969-2.064,1.673-2.991c1.167-1.539,2.524-2.696,4.572-2.659
	c0.673,0.012,1.275,0.348,1.383,1.054c0.056,0.366-0.114,0.935-0.387,1.139c-0.319,0.239-0.86,0.219-1.306,0.223
	c-0.112,0.001-0.362-0.448-0.318-0.502c0.25-0.306,0.568-0.557,0.867-0.822c0.178-0.158,0.364-0.307,0.546-0.461
	c-0.205-0.098-0.423-0.297-0.614-0.274c-0.433,0.052-0.953,0.094-1.26,0.352c-1.294,1.083-2.331,2.4-2.768,4.052
	c-0.134,0.506-0.025,1.283,0.299,1.641c0.29,0.321,1.046,0.37,1.566,0.303c1.33-0.172,2.336-1,3.118-2.015
	c0.438-0.569,0.557-1.373,0.94-1.997c0.838-1.365,2.067-2.253,3.625-2.664c0.824-0.217,2.027,0.106,2.246,0.597
	c0.28,0.628-0.266,1.914-1.104,2.278c-1.148,0.498-2.335,0.928-3.537,1.274c-0.773,0.223-0.586,0.789-0.649,1.278
	c-0.067,0.513,0.016,0.951,0.616,1.161c1.076,0.376,2.043,0.036,2.901-0.516c0.77-0.495,1.414-1.187,2.138-1.814
	c-0.947,1.757-3.811,3.557-5.677,2.651c-0.653-0.317-1.127-1.003-1.587-1.431c-1.004,0.488-2.139,1.279-3.392,1.582
	c-1.274,0.308-2.727,0.06-3.011-1.731c-0.299,0.091-0.599,0.182-0.901,0.271C97.779,42.389,97.804,42.41,97.804,42.41z
	 M107.083,40.332c0.084,0.074,0.168,0.149,0.252,0.223c1.395-0.143,2.845-1.335,3.236-2.699c0.06-0.209-0.032-0.462-0.053-0.695
	c-0.253,0.034-0.609-0.026-0.743,0.118C108.851,38.274,107.974,39.31,107.083,40.332z"/>
<path d="M86.306,42.485c-0.557,0.41-1.079,0.881-1.678,1.216c-0.847,0.473-1.161,0.305-1.552-0.644
	c-0.053-0.129-0.148-0.241-0.179-0.289c-0.587,0.336-1.14,0.704-1.734,0.982c-0.942,0.441-2.088-0.337-1.865-1.318
	c0.552-2.428,1.795-4.402,4.114-5.523c1.051-0.508,1.625-0.224,1.936,0.741c0.708-0.292,1.428-0.588,2.147-0.884
	c-0.903,2.344-2.31,4.283-3.175,6.483c0.068,0.043,0.136,0.087,0.205,0.13c0.601-0.292,1.201-0.584,1.804-0.875
	C86.331,42.506,86.306,42.485,86.306,42.485z M84.972,37.201c-0.362,0.117-0.643,0.143-0.843,0.284
	c-1.811,1.28-2.735,3.154-3.382,5.192c-0.054,0.171,0.086,0.515,0.24,0.611c0.159,0.099,0.519,0.081,0.664-0.039
	c0.48-0.399,0.977-0.814,1.332-1.319C83.944,40.567,85.044,39.242,84.972,37.201z"/>
<path d="M52.923,37.087c-0.152-0.006-0.306-0.031-0.456-0.015c-0.418,0.046-1.002-0.037-1.207,0.201
	c-0.257,0.299-0.351,0.903-0.25,1.31c0.184,0.748,0.588,1.438,0.853,2.169c0.458,1.263,0.333,1.802-0.7,2.586
	c-0.91,0.69-2.311,0.819-3.44,0.007c-0.68-0.489-0.991-1.727-0.467-2.639c0.316-0.55,0.995-0.892,1.511-1.327
	c0.087,0.086,0.173,0.173,0.26,0.259c-0.486,0.658-0.973,1.315-1.458,1.974c-0.103,0.14-0.265,0.279-0.282,0.432
	c-0.062,0.578,0.96,1.469,1.698,1.514c0.804,0.048,1.619-0.566,1.519-1.305c-0.114-0.846-0.403-1.676-0.681-2.49
	c-0.377-1.1-0.246-1.886,0.515-2.554c0.589-0.517,1.733-0.631,2.469-0.239c0.043,0.023,0.059,0.096,0.087,0.146
	C52.894,37.117,52.923,37.087,52.923,37.087z"/>
<path d="M46.674,37.14c0.649-0.717,1.299-1.435,1.948-2.152c-0.121-0.03-0.242-0.059-0.364-0.089
	c-0.223-0.39-0.612-0.78-0.614-1.172c-0.002-0.274,0.483-0.647,0.828-0.795c0.234-0.1,0.702,0.02,0.882,0.213
	c0.192,0.206,0.301,0.656,0.214,0.925c-0.367,1.141-1.285,1.835-2.229,2.479c-0.271,0.185-0.576,0.321-0.865,0.479
	C46.541,37.066,46.608,37.103,46.674,37.14z"/>
<path d="M52.894,37.117c0.309,0.35,0.921,0.772,0.858,1.033c-0.105,0.436-0.595,0.84-1.019,1.106
	c-0.146,0.092-0.576-0.265-0.876-0.416c0.146-0.28,0.238-0.615,0.454-0.822c0.171-0.164,0.492-0.172,0.768-0.255
	c-0.052-0.224-0.104-0.449-0.156-0.675C52.923,37.087,52.894,37.117,52.894,37.117z"/>
<path d="M39.192,36.165c-0.382-0.523-0.837-0.989-0.77-1.083c0.262-0.367,0.653-0.745,1.067-0.858
	c0.214-0.058,0.577,0.43,0.873,0.671C40.032,35.253,39.702,35.611,39.192,36.165z"/>
</svg>
