<?xml version="1.0" encoding="utf-8"?>
<!-- Generator: Adobe Illustrator 17.0.0, SVG Export Plug-In . SVG Version: 6.00 Build 0)  -->
<!DOCTYPE svg PUBLIC "-//W3C//DTD SVG 1.1//EN" "http://www.w3.org/Graphics/SVG/1.1/DTD/svg11.dtd">
<svg version="1.1" id="Layer_1" xmlns="http://www.w3.org/2000/svg" xmlns:xlink="http://www.w3.org/1999/xlink" x="0px" y="0px"
	 width="50px" height="50px" viewBox="0 0 50 50" enable-background="new 0 0 50 50" xml:space="preserve">
<g>
	<path d="M30.586,24.317c-0.898,0.894-1.867,0.797-2.171-0.217c-0.202-0.675,0.022-1.282,0.581-1.572
		c0.604-0.314,1.231-0.175,1.686,0.42c0.659,0.86,0.756,1.811,0.336,2.799c-0.475,1.118-1.319,1.787-2.537,1.919
		c-1.201,0.13-2.06-0.449-2.64-1.443c-0.303-0.52-0.497-1.103-0.715-1.602c-0.353,0.659-0.645,1.424-1.121,2.049
		c-0.95,1.248-2.675,1.353-3.927,0.332c-1.253-1.022-1.537-2.838-0.616-4.018c0.412-0.528,0.927-0.782,1.601-0.504
		c0.606,0.25,0.901,0.744,0.722,1.335c-0.123,0.407-0.461,0.944-0.807,1.038c-0.402,0.109-0.918-0.203-1.412-0.34
		c-0.262,0.66,0.145,1.716,1.07,2.368c0.896,0.632,2.017,0.68,2.716-0.103c0.552-0.618,0.969-1.418,1.243-2.207
		c0.428-1.231,0.362-2.532,0.214-3.892c-0.882,0.284-1.698,0.471-2.638-0.237c0.399-0.04,0.585-0.07,0.772-0.076
		c1.109-0.035,1.674-1.081,1.099-2.039c-0.699-1.164-1.793-1.603-2.895-1.159c-1.166,0.47-1.828,1.678-1.562,2.852
		c0.807-0.807,1.608-0.836,2.051-0.075c0.36,0.619,0.22,1.412-0.313,1.774c-0.59,0.401-1.346,0.265-1.83-0.33
		c-1.313-1.615-0.232-4.277,1.901-4.683c1.064-0.202,1.699,0.035,2.912,1.001c-0.289-1.066-0.578-2.133-0.867-3.199
		c0.053-0.037,0.106-0.075,0.158-0.112c0.481,0.599,0.962,1.197,1.493,1.859c0.51-0.64,0.999-1.253,1.488-1.866
		c0.059,0.031,0.117,0.061,0.176,0.092c-0.289,1.054-0.579,2.108-0.868,3.163c0.04,0.027,0.081,0.054,0.121,0.081
		c0.133-0.115,0.27-0.226,0.4-0.344c1.1-1.007,2.728-0.969,3.856,0.09c1.119,1.05,1.323,2.754,0.463,3.865
		c-0.46,0.595-1.146,0.774-1.75,0.458c-0.543-0.284-0.819-0.945-0.53-1.574c0.15-0.326,0.519-0.732,0.822-0.762
		c0.425-0.042,0.881,0.234,1.343,0.38c0.268-0.656-0.142-1.731-1.057-2.379c-0.94-0.666-2.029-0.604-2.857,0.163
		c-0.808,0.748-1.065,1.538-0.503,2.188c0.342,0.394,0.991,0.522,1.487,0.762c-0.289,0.448-0.788,0.516-2.325,0.139
		c-0.131,2.031-0.206,4.012,1.098,5.732c0.709,0.935,1.787,1.135,2.791,0.62C30.296,26.522,30.852,25.387,30.586,24.317z"/>
	<path d="M15.713,35.419c2.109-1.292,17.094-1.25,18.516-0.202c-0.498,0.578-0.983,1.171-1.507,1.728
		c-0.149,0.158-0.409,0.298-0.619,0.299c-4.669,0.017-9.337,0.018-14.006-0.002c-0.227-0.001-0.534-0.161-0.666-0.345
		C16.984,36.267,16.729,35.456,15.713,35.419z"/>
	<path d="M31.157,27.666c0.417,1.915,1.254,2.337,3.27,1.687c0.053,0.822,0.57,1.054,1.317,1.117
		c0.571,0.048,1.141,0.233,1.684,0.433c0.168,0.062,0.244,0.373,0.362,0.569c-0.209,0.006-0.425,0.05-0.626,0.013
		c-1.016-0.187-2.024-0.54-3.043-0.571c-4.713-0.142-9.429-0.256-14.144-0.254c-1.944,0.001-3.889,0.307-5.829,0.507
		c-0.391,0.04-0.764,0.245-1.153,0.338c-0.184,0.044-0.388,0.005-0.583,0.004c0.102-0.204,0.158-0.533,0.314-0.59
		c0.567-0.208,1.159-0.39,1.756-0.458c0.704-0.08,1.26-0.232,1.227-1.089c2.158,0.575,2.983,0.153,3.281-1.704
		c0.959,0.971,2.134,1.32,3.403,1.207c1.413-0.126,2.077-1.224,2.699-2.37c0.613,1.128,1.272,2.233,2.663,2.365
		C28.997,28.988,30.179,28.701,31.157,27.666z"/>
	<path d="M12.074,35.59c-0.498-0.422-0.996-0.844-1.494-1.266l0.02,0.021c-0.308-0.437-0.616-0.873-0.924-1.31l0.021,0.019
		c-0.309-0.498-0.618-0.995-0.927-1.493l0.012,0.023c-0.227-0.596-0.453-1.192-0.68-1.787l0.02,0.023
		c-0.075-0.37-0.149-0.739-0.222-1.097c-1.231-0.144-1.566-0.457-1.545-1.457c0.746-0.136,1.072,0.369,1.464,1.11
		c-0.072-0.536-0.114-0.852-0.156-1.16c-1.14-0.337-1.368-0.622-1.189-1.751c0.46,0.365,0.832,0.661,1.168,0.927
		c0-0.141,0-0.388,0-0.653c-0.68-0.289-1.269-0.651-0.928-1.783c0.403,0.362,0.721,0.648,1.04,0.935
		c0.04-0.001,0.079-0.003,0.119-0.004c-0.133-0.258-0.208-0.579-0.409-0.761c-0.468-0.423-0.7-0.847-0.263-1.576
		c0.311,0.362,0.574,0.669,0.837,0.976c0.051-0.019,0.103-0.037,0.154-0.056c-0.113-0.235-0.181-0.511-0.348-0.698
		c-0.38-0.425-0.519-0.843-0.096-1.508c0.279,0.365,0.504,0.659,0.766,1.001c0.419-0.729-1.108-1.3-0.034-2.111
		c0.175,0.304,0.352,0.613,0.53,0.923c0.04,0.014,0.079,0.028,0.119,0.041c-0.026-0.224,0.016-0.489-0.091-0.662
		c-0.286-0.464-0.368-0.878,0.148-1.392c0.194,0.339,0.363,0.636,0.566,0.99c0.364-0.593-0.671-1.328,0.306-1.869
		c0.121,0.303,0.237,0.594,0.354,0.886c0.045,0.001,0.091,0.003,0.136,0.004c-0.031-0.257-0.107-0.519-0.081-0.77
		c0.032-0.308,0.15-0.608,0.231-0.911c0.09,0.007,0.18,0.015,0.27,0.022c0.085,0.286,0.169,0.572,0.276,0.932
		c0.444-0.475-0.368-1.344,0.627-1.634c0.062,0.293,0.123,0.58,0.195,0.921c0.481-0.397-0.251-1.333,0.74-1.488
		c0.038,0.27,0.076,0.543,0.136,0.968c0.201-0.592,0.356-1.047,0.511-1.503c0.097,0.022,0.195,0.044,0.292,0.066
		c0.016,0.264,0.031,0.529,0.055,0.926c0.233-0.518,0.42-0.933,0.606-1.348c0.078,0.023,0.156,0.046,0.233,0.069
		c0.022,0.247,0.044,0.494,0.066,0.74c0.049,0.004,0.099,0.008,0.148,0.011c0.046-0.221,0.08-0.446,0.141-0.663
		c0.062-0.22,0.15-0.434,0.226-0.65c0.113,0.094,0.226,0.187,0.339,0.281c0.011,0.23,0.022,0.46,0.034,0.71
		c0.234-0.338,0.458-0.661,0.682-0.984c0.071,0.038,0.142,0.077,0.213,0.115c-0.027,0.206-0.053,0.412-0.08,0.619
		c0.401-0.047,0.806-0.094,1.21-0.141c0.016,0.092,0.033,0.184,0.049,0.275c-0.221,0.07-0.44,0.19-0.665,0.203
		c-2.381,0.138-4.235,1.306-5.845,2.959c-0.031,0.032-0.032,0.095-0.046,0.143l0.021-0.023c-0.145,0.093-0.314,0.162-0.432,0.281
		c-2.754,2.787-3.623,8.101-1.903,11.642c0.072,0.147,0.218,0.258,0.33,0.386c0.014,0.069,0.028,0.139,0.042,0.208
		c0.198,0.357,0.395,0.715,0.593,1.072l-0.024-0.023c1.03,1.898,2.641,3.171,4.5,4.176c0.283,0.153,0.574,0.29,0.794,0.599
		c-0.346-0.148-0.692-0.297-1.038-0.445c-1.074,1.088-1.787,1.17-2.617,0.306c0.491-0.67,0.702-0.748,2.034-0.665
		c-0.508-0.307-0.861-0.52-1.214-0.734C12.156,35.681,12.115,35.635,12.074,35.59z"/>
	<path d="M39.407,34.34c-0.482,0.422-0.964,0.843-1.446,1.265c-0.028,0.04-0.06,0.078-0.095,0.113
		c-0.36,0.217-0.719,0.433-1.079,0.65c0.778-0.035,1.443,0.041,1.909,0.702c-0.632,0.952-1.781,0.783-2.616-0.251
		c-0.35,0.145-0.707,0.292-1.065,0.44c-0.024-0.055-0.048-0.11-0.073-0.165c0.207-0.1,0.414-0.2,0.621-0.301
		c1.737-0.846,3.192-2.035,4.339-3.591c0.161-0.219,0.268-0.477,0.401-0.717l-0.023,0.023c0.226-0.405,0.451-0.81,0.677-1.214
		l-0.012,0.029c0.876-1.392,1.153-2.945,1.183-4.552c0.034-1.839-0.239-3.616-1.254-5.207L40.9,21.59
		c-0.449-1.047-0.993-2.023-1.989-2.66l0.023,0.026c-0.161-0.217-0.291-0.468-0.487-0.647c-1.336-1.222-2.911-2.015-4.653-2.465
		c-0.445-0.115-0.927-0.087-1.391-0.125c0.013-0.122,0.026-0.243,0.039-0.365c0.385,0.052,0.769,0.103,1.192,0.16
		c-0.029-0.185-0.061-0.387-0.092-0.59c0.066-0.048,0.132-0.096,0.198-0.143c0.231,0.301,0.462,0.602,0.695,0.907
		c0-0.164,0-0.379,0-0.594c0.085-0.04,0.17-0.079,0.255-0.119c0.195,0.354,0.391,0.708,0.632,1.146
		c0.028-0.287,0.05-0.521,0.075-0.774c0.85-0.008,0.402,0.857,0.848,1.192c0.022-0.316,0.04-0.569,0.06-0.845
		c0.894,0.073,0.4,0.913,0.794,1.339c0.06-0.341,0.107-0.606,0.153-0.869c0.972,0.141,0.283,1.062,0.733,1.515
		c0.063-0.372,0.11-0.647,0.163-0.958c0.996,0.248,0.296,1.123,0.625,1.731c0.136-0.464,0.219-0.75,0.304-1.038
		c1.122,0.357-0.013,1.271,0.555,1.76c0.11-0.344,0.206-0.647,0.317-0.995c1.028,0.499,0.004,1.282,0.352,1.895
		c0.191-0.369,0.343-0.661,0.521-1.003c0.538,0.439,0.511,0.843,0.232,1.318c-0.116,0.198-0.132,0.455-0.193,0.686
		c0.06,0.019,0.119,0.038,0.179,0.057c0.164-0.324,0.328-0.649,0.544-1.077c0.514,0.613,0.419,1.036,0.077,1.493
		c-0.137,0.183-0.168,0.445-0.097,0.727c0.224-0.314,0.449-0.628,0.733-1.025c0.426,0.68,0.29,1.1-0.092,1.522
		c-0.171,0.189-0.255,0.457-0.378,0.689c0.055,0.03,0.109,0.06,0.164,0.09c0.274-0.316,0.547-0.632,0.853-0.986
		c0.467,0.728,0.2,1.151-0.269,1.566c-0.198,0.175-0.297,0.462-0.305,0.783c0.323-0.292,0.645-0.584,1.032-0.934
		c0.268,1.048,0.119,1.299-0.904,1.755c0,0.237,0,0.486,0,0.701c0.339-0.294,0.695-0.602,1.112-0.964
		c0.319,1.036,0.001,1.453-1.108,1.694c-0.049,0.331-0.1,0.673-0.132,0.89c0.378-0.297,0.803-0.629,1.302-1.02
		c0.26,1.126-0.166,1.56-1.418,1.678c-0.073,0.357-0.149,0.726-0.224,1.095l0.019-0.024c-0.23,0.597-0.459,1.193-0.689,1.79
		l0.014-0.023c-0.311,0.501-0.622,1.002-0.934,1.502l0.021-0.018c-0.298,0.416-0.597,0.833-0.895,1.249
		C39.449,34.304,39.429,34.323,39.407,34.34z"/>
	<path d="M12.123,28.857c0.404,0.779,1.097,1.124,1.853,0.921c0.647-0.174,1.062-0.765,0.983-1.606
		c-0.153-1.627-0.916-2.943-2.269-3.865c-0.707-0.482-1.375-0.389-1.869,0.131c-0.522,0.55-0.557,1.282-0.175,1.878
		c0.344-0.185,0.68-0.519,0.996-0.501c0.473,0.027,0.749,0.456,0.601,0.95c-0.158,0.529-0.572,0.68-1.091,0.489
		c-0.848-0.311-1.274-1.372-0.928-2.291c0.371-0.984,1.33-1.432,2.273-1.019c0.363,0.159,0.683,0.417,1.038,0.64
		c0-0.432-0.046-0.853,0.009-1.259c0.131-0.954,0.782-1.484,1.725-1.465c0.907,0.019,1.704,0.697,1.812,1.543
		c0.084,0.655-0.25,1.174-0.782,1.166c-0.537-0.007-0.792-0.371-0.776-0.848c0.022-0.682,0.534-0.693,1.058-0.614
		c-0.35-0.774-1.009-1.134-1.748-0.971c-0.708,0.156-1.139,0.69-1.086,1.523c0.102,1.612,0.865,2.9,2.129,3.874
		c0.696,0.536,1.43,0.506,1.949,0.02c0.568-0.531,0.632-1.292,0.232-1.966c-0.323,0.192-0.624,0.476-0.96,0.527
		c-0.179,0.027-0.514-0.316-0.601-0.557c-0.073-0.202,0.037-0.638,0.195-0.721c0.273-0.141,0.692-0.204,0.969-0.095
		c0.846,0.332,1.182,1.434,0.786,2.337c-0.392,0.895-1.318,1.294-2.202,0.907c-0.381-0.166-0.722-0.424-1.083-0.641
		c0,0.468,0.059,0.928-0.012,1.366c-0.142,0.875-0.864,1.409-1.741,1.368c-0.91-0.043-1.7-0.741-1.775-1.586
		c-0.05-0.56,0.077-1.048,0.734-1.12c0.542-0.06,0.781,0.305,0.815,0.792C13.219,28.681,12.884,28.887,12.123,28.857z"/>
	<path d="M38.06,28.816c-0.573,0.117-1.11,0.04-1.041-0.658c0.029-0.288,0.438-0.701,0.735-0.763
		c0.491-0.101,0.757,0.307,0.806,0.799c0.085,0.864-0.616,1.696-1.564,1.862c-0.881,0.154-1.752-0.347-1.924-1.202
		c-0.097-0.48-0.017-0.995-0.017-1.527c-0.405,0.239-0.766,0.512-1.171,0.678c-0.884,0.364-1.793-0.069-2.167-0.982
		c-0.362-0.884-0.015-1.907,0.782-2.295c0.44-0.214,0.932-0.218,1.109,0.252c0.106,0.282-0.042,0.804-0.265,1.036
		c-0.368,0.382-0.805,0.124-1.083-0.56c-0.491,0.597-0.515,1.327-0.065,1.919c0.414,0.544,1.081,0.68,1.777,0.364
		c1.272-0.578,2.613-2.899,2.469-4.293c-0.069-0.666-0.385-1.146-1.078-1.306c-0.696-0.161-1.296,0.133-1.788,0.897
		c0.064,0.025,0.125,0.074,0.175,0.064c0.515-0.102,0.941,0.069,0.881,0.611c-0.034,0.308-0.393,0.757-0.678,0.821
		c-0.523,0.117-0.815-0.294-0.859-0.824c-0.072-0.87,0.66-1.712,1.588-1.835c1.002-0.133,1.8,0.412,1.934,1.374
		c0.058,0.419,0.01,0.854,0.01,1.339c0.351-0.218,0.663-0.459,1.012-0.621c0.912-0.423,1.876-0.039,2.278,0.874
		c0.409,0.928,0.021,2.037-0.841,2.394c-0.505,0.209-0.986,0.104-1.093-0.427c-0.058-0.288,0.19-0.808,0.452-0.957
		c0.523-0.298,0.818,0.118,0.965,0.618c0.519-0.669,0.513-1.401-0.001-1.99c-0.461-0.528-1.117-0.67-1.79-0.237
		c-1.479,0.951-2.293,2.339-2.382,4.101c-0.039,0.779,0.421,1.327,1.076,1.452C37.065,29.941,37.701,29.594,38.06,28.816z"/>
	<path d="M30.44,32.95c0.623,0.325,1.067,0.557,1.521,0.793c0.083-0.264,0.15-0.474,0.196-0.62c-0.41-0.066-0.813-0.13-1.217-0.195
		c0.005-0.118,0.01-0.237,0.014-0.355c0.399-0.021,0.799-0.043,1.225-0.065c-0.02-0.134-0.052-0.342-0.098-0.638
		c-0.542,0.203-1.049,0.392-1.626,0.608c1.432-1.35,2.38-1.303,3.736,0.264c-0.561-0.303-0.972-0.524-1.414-0.762
		c-0.15,0.21-0.286,0.4-0.423,0.592c0.208,0.131,0.403,0.253,0.597,0.376c-0.186,0.021-0.373,0.041-0.622,0.069
		c0.095,0.237,0.185,0.461,0.297,0.743c0.483-0.188,0.969-0.377,1.527-0.594C32.739,34.531,31.759,34.493,30.44,32.95z"/>
	<path d="M25.051,32.627c0.209,0.303,0.343,0.497,0.512,0.743c0.441-0.21,0.863-0.411,1.378-0.657
		c-1.281,1.422-2.206,1.458-3.676,0.069c0.623,0.256,1.064,0.438,1.54,0.633c0.069-0.25,0.126-0.457,0.169-0.614
		c-0.408-0.035-0.818-0.071-1.229-0.106c-0.005-0.123-0.01-0.247-0.015-0.37c0.41-0.046,0.82-0.093,1.239-0.14
		c-0.03-0.117-0.084-0.323-0.16-0.616c-0.502,0.218-0.974,0.422-1.487,0.645c1.167-1.348,2.301-1.396,3.417-0.066
		c-0.477-0.207-0.836-0.363-1.225-0.532c-0.137,0.232-0.262,0.444-0.393,0.667c0.253,0.069,0.46,0.126,0.668,0.183
		c-0.017,0.069-0.035,0.137-0.052,0.206C25.55,32.659,25.362,32.647,25.051,32.627z"/>
	<path d="M25.095,12.289c0.301,0.412,0.668,0.915,1.005,1.376c-0.333,0.656-0.724,1.429-1.008,1.989
		c-0.273-0.551-0.651-1.313-0.992-2C24.417,13.219,24.799,12.695,25.095,12.289z"/>
	<path d="M18.004,33.037c0.003,0.055-0.014,0.121,0.011,0.152c0.123,0.148,0.257,0.287,0.422,0.466
		c0.383-0.212,0.768-0.426,1.281-0.71c-1.192,1.498-2.136,1.582-3.605,0.293c0.625,0.22,1.08,0.379,1.567,0.55
		c0.043-0.269,0.077-0.478,0.111-0.69c-0.408,0-0.821,0-1.234,0c-0.018-0.107-0.035-0.214-0.053-0.32
		c0.319-0.06,0.636-0.154,0.957-0.169c0.355-0.017,0.714,0.037,1.132,0.206C18.414,32.882,18.234,32.95,18.004,33.037z"/>
	<path d="M37.867,35.718c0.035-0.035,0.066-0.072,0.095-0.113c0.764-0.344,1.529-0.737,2.275,0.037
		C39.672,36.682,38.502,36.713,37.867,35.718z"/>
	<path d="M12.074,35.59c0.041,0.045,0.082,0.091,0.123,0.136c-0.667,0.962-1.631,0.965-2.413-0.029
		C10.514,34.858,11.296,35.252,12.074,35.59z"/>
	<path d="M39.407,34.34c0.022-0.017,0.041-0.036,0.059-0.057c0.642-0.449,1.29-0.818,2.033-0.188
		c-0.404,0.837-1.005,1.108-1.773,0.763C39.574,34.79,39.512,34.518,39.407,34.34z"/>
	<path d="M36.482,34.134c0.727,0.883,0.52,1.675-0.546,2.083C35.515,35.205,35.684,34.564,36.482,34.134z"/>
	<path d="M10.601,34.345l-0.02-0.021c-0.073,0.179-0.097,0.458-0.226,0.522c-0.738,0.363-1.353,0.105-1.797-0.7
		C9.255,33.572,9.667,33.612,10.601,34.345z"/>
	<path d="M14.133,36.216c-1.066-0.372-1.286-1.156-0.583-2.078C14.353,34.53,14.531,35.162,14.133,36.216z"/>
	<path d="M40.341,33.052c0.408-0.273,0.789-0.609,1.234-0.794c0.252-0.105,0.607,0.039,0.949,0.074
		c-0.491,1.215-1.452,1.48-2.16,0.701C40.362,33.035,40.341,33.052,40.341,33.052z"/>
	<path d="M12.365,33.205c0.676,0.53,0.735,1.06,0.227,2.047C11.605,34.758,11.515,33.952,12.365,33.205z"/>
	<path d="M9.677,33.035c-0.698,0.776-1.662,0.507-2.112-0.613c0.529-0.317,1.032-0.283,1.514,0.098
		c0.213,0.168,0.411,0.354,0.618,0.533C9.697,33.054,9.677,33.035,9.677,33.035z"/>
	<path d="M37.491,35.252c-0.531-0.884-0.483-1.48,0.164-2.044C38.529,33.883,38.465,34.681,37.491,35.252z"/>
	<path d="M41.261,31.573c0.462-0.598,0.896-1.252,2.048-0.842c-0.316,0.378-0.521,0.835-0.852,0.962
		c-0.326,0.125-0.78-0.084-1.18-0.145C41.274,31.55,41.261,31.573,41.261,31.573z"/>
	<path d="M38.809,34.098c-0.652-0.813-0.688-1.298-0.147-1.973C39.585,32.638,39.644,33.438,38.809,34.098z"/>
	<path d="M11.356,32.124c0.572,0.619,0.553,1.074-0.085,1.962C10.416,33.514,10.45,32.709,11.356,32.124z"/>
	<path d="M8.771,31.561c-0.747,0.614-1.563,0.26-1.856-0.806c0.778-0.358,1.069-0.229,1.867,0.827
		C8.783,31.584,8.771,31.561,8.771,31.561z"/>
	<path d="M19.629,32.457c-0.466-0.183-0.932-0.366-1.381-0.543c-0.139,0.233-0.247,0.413-0.416,0.698
		c-0.115-0.275-0.19-0.453-0.29-0.691c-0.457,0.24-0.917,0.482-1.402,0.738c0.665-0.968,1.452-1.376,2.232-1.071
		c0.46,0.18,0.862,0.511,1.287,0.779C19.666,32.372,19.637,32.434,19.629,32.457z"/>
	<path d="M41.93,29.807c0.414-0.485,0.76-1.097,1.57-0.868c0.019,0.821-0.44,1.346-1.176,1.291c-0.135-0.01-0.25-0.292-0.375-0.448
		C41.949,29.783,41.93,29.807,41.93,29.807z"/>
	<path d="M8.103,29.796c0.073,0.384-0.107,0.501-0.463,0.448c-0.718-0.106-1.117-0.498-1.171-1.258
		c0.887-0.328,1.224,0.343,1.653,0.833C8.122,29.82,8.103,29.796,8.103,29.796z"/>
	<path d="M40.303,32.485c-0.133,0.111-0.266,0.221-0.397,0.331c-0.767-0.727-0.863-1.195-0.385-1.893
		c0.83,0.254,0.794,0.921,0.758,1.586C40.28,32.508,40.303,32.485,40.303,32.485z"/>
	<path d="M9.762,32.512c-0.012-0.652-0.076-1.328,0.75-1.583c0.502,0.642,0.44,1.024-0.33,1.897
		c-0.145-0.11-0.293-0.223-0.443-0.336C9.738,32.489,9.762,32.512,9.762,32.512z"/>
	<path d="M40.945,31.323l0.012-0.029c-0.756,0.091-1.187-0.68-0.879-1.576C40.95,29.906,41.097,30.18,40.945,31.323z"/>
	<path d="M9.169,31.44c-0.014-0.069-0.028-0.139-0.042-0.208c-0.192-0.994-0.064-1.242,0.8-1.538
		C10.299,30.485,10.05,31.059,9.169,31.44z"/>
	<path d="M9.552,28.436c0.193,0.791-0.026,1.167-0.866,1.482C8.372,28.981,8.622,28.554,9.552,28.436z"/>
	<path d="M40.467,28.429c0.947,0.132,1.159,0.471,0.952,1.461C40.646,29.742,40.353,29.313,40.467,28.429z"/>
	<path d="M8.347,28.491c-0.226-0.929,0.015-1.271,0.961-1.361C9.455,27.879,9.264,28.151,8.347,28.491z"/>
	<path d="M40.726,27.107c0.98,0.161,1.161,0.416,1.01,1.366C40.865,28.233,40.631,27.931,40.726,27.107z"/>
	<path d="M40.779,25.898c0.886-0.061,1.154,0.206,1.109,1.11C41.042,26.928,40.765,26.651,40.779,25.898z"/>
	<path d="M8.149,27.059c-0.014-0.939,0.2-1.164,1.078-1.198C9.345,26.575,9.115,26.84,8.149,27.059z"/>
	<path d="M40.596,24.691c0.932-0.136,1.138,0.019,1.309,0.967C41.24,25.661,40.75,25.478,40.596,24.691z"/>
	<path d="M9.446,24.678c-0.094,0.78-0.616,0.935-1.219,1.012C8.175,24.824,8.469,24.568,9.446,24.678z"/>
	<path d="M9.662,23.576c-0.137,0.698-0.652,0.768-1.223,0.795C8.476,23.51,8.823,23.285,9.662,23.576z"/>
	<path d="M40.364,23.514c0.783-0.233,1.173,0.041,1.37,0.862C41.083,24.345,40.568,24.304,40.364,23.514z"/>
	<path d="M40.011,22.443c0.899-0.213,1.029-0.148,1.318,0.642C40.748,23.185,40.256,23.178,40.011,22.443z"/>
	<path d="M10.092,22.727c-0.424,0.17-0.847,0.34-1.407,0.564c0.281-0.983,0.502-1.092,1.296-0.834
		C10.018,22.547,10.055,22.637,10.092,22.727z"/>
	<path d="M40.873,21.564c-0.102,0.156-0.227,0.454-0.302,0.443c-0.365-0.058-0.717-0.199-1.179-0.344
		c0.66-0.666,1.075-0.252,1.508-0.073L40.873,21.564z"/>
	<path d="M10.535,21.748c-0.425,0.116-0.85,0.233-1.384,0.379c0.33-0.915,0.596-1.013,1.326-0.648
		C10.497,21.568,10.516,21.658,10.535,21.748z"/>
	<path d="M40.233,21.054c-0.406-0.07-0.812-0.139-1.366-0.234C39.58,20.158,39.824,20.195,40.233,21.054z"/>
	<path d="M11.034,20.847c-0.41,0.066-0.821,0.132-1.403,0.226c0.421-0.816,0.842-0.873,1.36-0.55
		C11.005,20.631,11.019,20.739,11.034,20.847z"/>
	<path d="M39.768,20.043c-0.529,0-0.913,0-1.352,0C38.749,19.299,39.06,19.292,39.768,20.043z"/>
	<path d="M10.373,19.961c0.563-0.627,0.641-0.637,1.282-0.162C11.304,20.314,10.881,20.206,10.373,19.961z"/>
	<path d="M11.133,18.923c0,0-0.021,0.022-0.021,0.023c0.434-0.263,0.856-0.41,1.247,0.164
		C11.868,19.446,11.448,19.591,11.133,18.923z"/>
	<path d="M38.935,18.956l-0.023-0.026c-0.322,0.553-0.609,0.588-1.195,0.13C38.088,18.559,38.501,18.652,38.935,18.956z"/>
	<path d="M38.139,18.525c-0.36,0.039-0.721,0.078-1.081,0.117c-0.017-0.13-0.034-0.26-0.052-0.39
		c0.361-0.054,0.722-0.108,1.083-0.161C38.105,18.236,38.122,18.38,38.139,18.525z"/>
	<path d="M11.945,18.116c0.366,0.036,0.733,0.072,1.099,0.108c-0.011,0.132-0.021,0.263-0.032,0.395
		c-0.363-0.021-0.727-0.043-1.09-0.064C11.93,18.408,11.937,18.262,11.945,18.116z"/>
</g>
</svg>
