<?xml version="1.0" encoding="utf-8"?>
<!-- Generator: Adobe Illustrator 17.0.0, SVG Export Plug-In . SVG Version: 6.00 Build 0)  -->
<!DOCTYPE svg PUBLIC "-//W3C//DTD SVG 1.1//EN" "http://www.w3.org/Graphics/SVG/1.1/DTD/svg11.dtd">
<svg version="1.1" id="Layer_1" xmlns="http://www.w3.org/2000/svg" xmlns:xlink="http://www.w3.org/1999/xlink" x="0px" y="0px"
	 width="50px" height="50px" viewBox="0 0 50 50" enable-background="new 0 0 50 50" xml:space="preserve">
<g>
	<path d="M-110.338,10.59c-0.749,0.746-1.558,0.665-1.812-0.181c-0.169-0.563,0.018-1.07,0.485-1.312
		c0.504-0.262,1.027-0.146,1.407,0.35c0.55,0.718,0.631,1.511,0.28,2.337c-0.396,0.933-1.101,1.492-2.117,1.602
		c-1.003,0.109-1.72-0.374-2.203-1.204c-0.253-0.434-0.415-0.921-0.597-1.337c-0.294,0.55-0.538,1.188-0.936,1.71
		c-0.793,1.042-2.233,1.129-3.277,0.277c-1.046-0.853-1.283-2.369-0.514-3.354c0.344-0.44,0.774-0.652,1.336-0.42
		c0.506,0.208,0.752,0.621,0.602,1.114c-0.103,0.34-0.385,0.788-0.674,0.866c-0.336,0.091-0.766-0.169-1.179-0.284
		c-0.219,0.55,0.121,1.432,0.893,1.977c0.747,0.527,1.683,0.567,2.267-0.086c0.46-0.516,0.808-1.183,1.037-1.842
		c0.357-1.027,0.302-2.113,0.178-3.248c-0.736,0.237-1.418,0.393-2.202-0.198c0.333-0.033,0.488-0.058,0.644-0.063
		c0.925-0.029,1.397-0.902,0.917-1.702c-0.583-0.972-1.497-1.337-2.416-0.967c-0.973,0.392-1.526,1.401-1.304,2.381
		c0.674-0.674,1.342-0.698,1.711-0.062c0.3,0.516,0.183,1.178-0.261,1.48c-0.493,0.335-1.124,0.221-1.527-0.276
		c-1.096-1.348-0.194-3.57,1.587-3.908c0.888-0.169,1.418,0.029,2.43,0.835c-0.241-0.89-0.483-1.78-0.724-2.67
		c0.044-0.031,0.088-0.063,0.132-0.094c0.401,0.5,0.803,0.999,1.246,1.552c0.426-0.534,0.834-1.046,1.242-1.557
		c0.049,0.026,0.098,0.051,0.147,0.077c-0.241,0.88-0.483,1.76-0.724,2.64c0.034,0.022,0.068,0.045,0.101,0.067
		c0.111-0.096,0.225-0.188,0.334-0.287c0.918-0.84,2.277-0.809,3.218,0.075c0.934,0.876,1.104,2.298,0.387,3.226
		c-0.384,0.496-0.957,0.646-1.461,0.382c-0.453-0.237-0.684-0.789-0.442-1.314c0.125-0.272,0.433-0.611,0.686-0.636
		c0.355-0.035,0.735,0.195,1.121,0.317c0.224-0.548-0.118-1.445-0.882-1.986c-0.785-0.556-1.693-0.504-2.385,0.136
		c-0.674,0.624-0.889,1.284-0.419,1.826c0.285,0.329,0.827,0.436,1.241,0.636c-0.242,0.374-0.658,0.43-1.941,0.116
		c-0.11,1.695-0.172,3.349,0.916,4.784c0.592,0.781,1.491,0.947,2.329,0.518C-110.58,12.431-110.116,11.483-110.338,10.59z"/>
	<path d="M-122.751,19.856c1.76-1.078,14.267-1.043,15.454-0.169c-0.416,0.483-0.821,0.978-1.257,1.443
		c-0.124,0.132-0.342,0.249-0.517,0.249c-3.896,0.014-7.793,0.015-11.69-0.002c-0.19-0.001-0.446-0.134-0.555-0.288
		C-121.69,20.564-121.904,19.887-122.751,19.856z"/>
	<path d="M-109.861,13.385c0.348,1.598,1.047,1.951,2.729,1.408c0.045,0.686,0.476,0.88,1.099,0.932
		c0.477,0.04,0.952,0.195,1.405,0.362c0.14,0.052,0.204,0.311,0.302,0.475c-0.174,0.005-0.355,0.042-0.522,0.011
		c-0.848-0.156-1.69-0.451-2.54-0.476c-3.934-0.119-7.87-0.214-11.805-0.212c-1.622,0.001-3.245,0.256-4.865,0.423
		c-0.327,0.034-0.637,0.204-0.962,0.282c-0.154,0.037-0.324,0.004-0.487,0.003c0.085-0.17,0.132-0.444,0.262-0.492
		c0.473-0.173,0.967-0.326,1.465-0.382c0.587-0.067,1.052-0.194,1.024-0.909c1.801,0.48,2.49,0.127,2.738-1.422
		c0.8,0.811,1.781,1.102,2.84,1.007c1.179-0.105,1.734-1.021,2.253-1.978c0.511,0.941,1.062,1.863,2.223,1.974
		C-111.664,14.489-110.677,14.249-109.861,13.385z"/>
	<path d="M-125.788,19.999c-0.416-0.352-0.831-0.705-1.247-1.057c0,0,0.017,0.018,0.017,0.018c-0.257-0.365-0.514-0.729-0.771-1.094
		l0.017,0.016c-0.258-0.415-0.516-0.831-0.773-1.246c0,0,0.01,0.019,0.01,0.019c-0.189-0.497-0.378-0.995-0.568-1.492l0.016,0.02
		c-0.062-0.308-0.125-0.617-0.185-0.915c-1.027-0.12-1.307-0.381-1.29-1.216c0.623-0.113,0.895,0.308,1.222,0.926
		c-0.06-0.447-0.096-0.711-0.13-0.968c-0.952-0.281-1.142-0.519-0.992-1.461c0.384,0.305,0.695,0.551,0.975,0.774
		c0-0.118,0-0.323,0-0.545c-0.567-0.241-1.059-0.543-0.775-1.488c0.336,0.302,0.602,0.541,0.868,0.78
		c0.033-0.001,0.066-0.002,0.099-0.004c-0.111-0.215-0.174-0.483-0.341-0.635c-0.391-0.353-0.584-0.707-0.22-1.315
		c0.259,0.302,0.479,0.558,0.698,0.814c0.043-0.015,0.086-0.031,0.129-0.046c-0.094-0.196-0.151-0.427-0.29-0.583
		c-0.317-0.354-0.433-0.704-0.08-1.259c0.233,0.305,0.421,0.55,0.639,0.835c0.35-0.608-0.925-1.085-0.028-1.762
		c0.146,0.254,0.294,0.512,0.443,0.77c0.033,0.012,0.066,0.023,0.099,0.035c-0.022-0.187,0.013-0.408-0.076-0.553
		c-0.239-0.388-0.307-0.733,0.124-1.162c0.162,0.283,0.303,0.531,0.472,0.826c0.304-0.495-0.56-1.108,0.256-1.56
		c0.101,0.252,0.198,0.496,0.295,0.74c0.038,0.001,0.076,0.002,0.114,0.004c-0.026-0.215-0.09-0.433-0.068-0.643
		c0.027-0.257,0.125-0.508,0.193-0.761c0.075,0.006,0.15,0.012,0.225,0.019c0.071,0.239,0.141,0.477,0.23,0.778
		c0.371-0.397-0.307-1.122,0.524-1.364c0.052,0.244,0.102,0.484,0.163,0.768c0.402-0.332-0.209-1.112,0.617-1.242
		c0.032,0.226,0.063,0.453,0.113,0.808c0.168-0.494,0.297-0.874,0.427-1.254c0.081,0.018,0.163,0.037,0.244,0.055
		c0.013,0.221,0.026,0.441,0.046,0.773c0.195-0.433,0.35-0.779,0.506-1.125c0.065,0.019,0.13,0.039,0.195,0.058
		c0.018,0.206,0.037,0.412,0.055,0.618c0.041,0.003,0.083,0.006,0.124,0.009c0.038-0.185,0.067-0.372,0.118-0.554
		c0.052-0.184,0.125-0.362,0.189-0.542c0.094,0.078,0.189,0.156,0.283,0.235c0.009,0.192,0.018,0.384,0.028,0.593
		c0.195-0.282,0.382-0.552,0.569-0.821c0.059,0.032,0.119,0.064,0.178,0.096c-0.022,0.172-0.044,0.344-0.067,0.517
		c0.335-0.039,0.672-0.078,1.01-0.118c0.014,0.077,0.027,0.153,0.041,0.23c-0.185,0.059-0.367,0.158-0.555,0.169
		c-1.987,0.116-3.535,1.09-4.878,2.47c-0.026,0.027-0.026,0.079-0.039,0.12c0,0,0.017-0.019,0.017-0.019
		c-0.121,0.077-0.262,0.135-0.361,0.235c-2.298,2.326-3.024,6.761-1.589,9.716c0.06,0.123,0.182,0.216,0.275,0.322
		c0.012,0.058,0.023,0.116,0.035,0.174c0.165,0.298,0.33,0.596,0.495,0.895l-0.02-0.019c0.86,1.584,2.204,2.647,3.756,3.485
		c0.236,0.128,0.479,0.242,0.662,0.5c-0.289-0.124-0.578-0.248-0.866-0.371c-0.897,0.908-1.492,0.977-2.184,0.255
		c0.41-0.559,0.586-0.624,1.697-0.555c-0.424-0.256-0.719-0.434-1.013-0.612C-125.72,20.075-125.754,20.037-125.788,19.999z"/>
	<path d="M-102.975,18.956c-0.402,0.352-0.805,0.704-1.207,1.055c-0.024,0.034-0.05,0.065-0.079,0.094
		c-0.3,0.181-0.6,0.362-0.901,0.542c0.649-0.03,1.205,0.034,1.593,0.586c-0.528,0.795-1.487,0.654-2.184-0.209
		c-0.292,0.121-0.59,0.244-0.889,0.367c-0.02-0.046-0.04-0.092-0.061-0.138c0.173-0.084,0.346-0.167,0.519-0.251
		c1.45-0.706,2.664-1.698,3.622-2.997c0.135-0.182,0.224-0.398,0.334-0.599l-0.02,0.019c0.188-0.338,0.377-0.676,0.565-1.013
		c0,0-0.01,0.024-0.01,0.024c0.731-1.162,0.963-2.458,0.987-3.799c0.028-1.535-0.2-3.018-1.047-4.346l0.023,0.022
		c-0.375-0.874-0.828-1.688-1.66-2.22c0,0,0.02,0.022,0.02,0.022c-0.134-0.181-0.243-0.39-0.406-0.54
		c-1.115-1.02-2.429-1.682-3.884-2.057c-0.371-0.096-0.773-0.073-1.161-0.104c0.011-0.101,0.022-0.203,0.032-0.304
		c0.321,0.043,0.642,0.086,0.995,0.134c-0.024-0.154-0.051-0.323-0.077-0.492c0.055-0.04,0.11-0.08,0.165-0.12
		c0.193,0.251,0.385,0.502,0.58,0.757c0-0.137,0-0.317,0-0.496c0.071-0.033,0.142-0.066,0.213-0.099
		c0.163,0.295,0.326,0.591,0.528,0.956c0.023-0.239,0.042-0.435,0.062-0.646c0.71-0.007,0.335,0.716,0.708,0.995
		c0.019-0.264,0.034-0.475,0.05-0.705c0.747,0.061,0.333,0.762,0.663,1.118c0.05-0.284,0.089-0.505,0.128-0.725
		c0.812,0.117,0.236,0.886,0.612,1.264c0.053-0.311,0.092-0.54,0.136-0.799c0.831,0.207,0.247,0.937,0.522,1.445
		c0.113-0.387,0.183-0.626,0.253-0.866c0.936,0.298-0.011,1.061,0.463,1.469c0.091-0.287,0.172-0.54,0.265-0.831
		c0.858,0.417,0.003,1.07,0.294,1.582c0.16-0.308,0.286-0.551,0.435-0.837c0.449,0.366,0.426,0.704,0.194,1.1
		c-0.097,0.165-0.11,0.38-0.161,0.572c0.05,0.016,0.099,0.032,0.149,0.047c0.137-0.271,0.273-0.542,0.454-0.899
		c0.429,0.512,0.35,0.865,0.064,1.246c-0.114,0.153-0.141,0.371-0.081,0.607c0.187-0.262,0.375-0.524,0.612-0.856
		c0.355,0.568,0.242,0.918-0.077,1.271c-0.143,0.158-0.213,0.381-0.316,0.575c0.046,0.025,0.091,0.05,0.137,0.075
		c0.228-0.264,0.457-0.528,0.712-0.823c0.39,0.607,0.167,0.96-0.225,1.307c-0.165,0.146-0.248,0.386-0.254,0.653
		c0.269-0.244,0.538-0.488,0.861-0.78c0.223,0.875,0.099,1.084-0.754,1.465c0,0.198,0,0.406,0,0.585
		c0.283-0.246,0.58-0.503,0.928-0.805c0.266,0.865,0.001,1.213-0.924,1.414c-0.041,0.276-0.083,0.562-0.11,0.743
		c0.316-0.248,0.67-0.525,1.086-0.852c0.217,0.94-0.138,1.302-1.184,1.401c-0.061,0.298-0.124,0.606-0.187,0.914l0.016-0.02
		c-0.192,0.498-0.383,0.996-0.575,1.494l0.011-0.019c-0.26,0.418-0.519,0.836-0.779,1.254l0.018-0.015
		c-0.249,0.347-0.498,0.695-0.747,1.042C-102.941,18.926-102.957,18.942-102.975,18.956z"/>
	<path d="M-125.747,14.379c0.337,0.65,0.916,0.938,1.547,0.769c0.54-0.145,0.886-0.639,0.82-1.34
		c-0.128-1.358-0.765-2.456-1.894-3.226c-0.59-0.402-1.148-0.325-1.56,0.11c-0.435,0.459-0.465,1.07-0.146,1.568
		c0.287-0.155,0.567-0.433,0.831-0.418c0.395,0.023,0.625,0.381,0.502,0.793c-0.132,0.441-0.478,0.567-0.91,0.408
		c-0.707-0.26-1.063-1.145-0.775-1.912c0.309-0.822,1.11-1.195,1.897-0.851c0.303,0.133,0.57,0.348,0.867,0.534
		c0-0.361-0.039-0.712,0.008-1.051c0.109-0.796,0.652-1.238,1.44-1.222c0.757,0.016,1.422,0.582,1.512,1.288
		c0.07,0.547-0.209,0.98-0.653,0.974c-0.448-0.006-0.661-0.309-0.648-0.707c0.018-0.569,0.446-0.578,0.883-0.512
		c-0.292-0.646-0.842-0.946-1.459-0.81c-0.591,0.13-0.95,0.576-0.906,1.271c0.085,1.345,0.722,2.42,1.777,3.233
		c0.581,0.447,1.193,0.422,1.626,0.017c0.474-0.443,0.527-1.079,0.194-1.641c-0.27,0.16-0.521,0.397-0.802,0.44
		c-0.149,0.022-0.429-0.264-0.502-0.465c-0.061-0.169,0.031-0.533,0.163-0.601c0.227-0.118,0.577-0.17,0.809-0.079
		c0.706,0.277,0.987,1.197,0.656,1.95c-0.327,0.747-1.1,1.08-1.838,0.757c-0.318-0.139-0.603-0.354-0.904-0.535
		c0,0.391,0.049,0.774-0.01,1.14c-0.119,0.73-0.721,1.176-1.453,1.142c-0.76-0.036-1.419-0.619-1.482-1.324
		c-0.041-0.467,0.065-0.875,0.613-0.935c0.453-0.05,0.652,0.255,0.681,0.661C-124.832,14.232-125.113,14.404-125.747,14.379z"/>
	<path d="M-104.1,14.345c-0.479,0.097-0.927,0.033-0.869-0.549c0.024-0.24,0.365-0.585,0.613-0.636
		c0.41-0.084,0.632,0.256,0.672,0.667c0.071,0.722-0.514,1.416-1.306,1.554c-0.735,0.129-1.462-0.29-1.606-1.004
		c-0.081-0.4-0.015-0.83-0.015-1.274c-0.338,0.199-0.64,0.427-0.977,0.566c-0.738,0.304-1.497-0.058-1.808-0.82
		c-0.302-0.738-0.013-1.592,0.653-1.915c0.367-0.179,0.778-0.182,0.926,0.21c0.089,0.236-0.035,0.671-0.221,0.864
		c-0.307,0.319-0.672,0.103-0.904-0.467c-0.41,0.498-0.43,1.107-0.054,1.602c0.345,0.454,0.902,0.568,1.484,0.304
		c1.062-0.482,2.181-2.42,2.06-3.583c-0.058-0.556-0.321-0.957-0.899-1.09c-0.581-0.134-1.082,0.111-1.492,0.749
		c0.053,0.021,0.104,0.061,0.146,0.053c0.43-0.085,0.785,0.057,0.736,0.51c-0.028,0.257-0.328,0.632-0.566,0.685
		c-0.437,0.098-0.68-0.245-0.717-0.688c-0.06-0.726,0.551-1.429,1.325-1.532c0.837-0.111,1.503,0.344,1.615,1.147
		c0.049,0.35,0.008,0.712,0.008,1.118c0.293-0.182,0.553-0.383,0.844-0.518c0.761-0.353,1.566-0.033,1.902,0.729
		c0.341,0.775,0.017,1.7-0.702,1.998c-0.421,0.175-0.823,0.087-0.912-0.356c-0.049-0.241,0.159-0.674,0.377-0.799
		c0.437-0.248,0.683,0.098,0.805,0.516c0.433-0.558,0.428-1.169-0.001-1.661c-0.384-0.441-0.933-0.559-1.494-0.198
		c-1.234,0.794-1.914,1.952-1.988,3.423c-0.033,0.65,0.352,1.108,0.898,1.212C-104.93,15.284-104.399,14.994-104.1,14.345z"/>
	<path d="M-110.46,17.796c0.52,0.271,0.89,0.465,1.269,0.662c0.07-0.221,0.125-0.396,0.163-0.517
		c-0.342-0.055-0.679-0.109-1.015-0.163c0.004-0.099,0.008-0.198,0.012-0.297c0.333-0.018,0.667-0.036,1.022-0.055
		c-0.017-0.112-0.044-0.286-0.081-0.533c-0.452,0.169-0.875,0.328-1.357,0.508c1.195-1.127,1.986-1.087,3.118,0.22
		c-0.469-0.253-0.811-0.437-1.18-0.636c-0.125,0.175-0.239,0.334-0.353,0.494c0.174,0.109,0.336,0.211,0.499,0.313
		c-0.156,0.017-0.311,0.035-0.519,0.058c0.079,0.198,0.154,0.385,0.248,0.62c0.403-0.157,0.809-0.315,1.275-0.496
		C-108.541,19.115-109.359,19.083-110.46,17.796z"/>
	<path d="M-114.957,17.526c0.175,0.253,0.286,0.415,0.428,0.62c0.368-0.176,0.72-0.343,1.15-0.548
		c-1.069,1.187-1.842,1.217-3.068,0.058c0.52,0.214,0.888,0.365,1.285,0.529c0.057-0.208,0.105-0.381,0.141-0.512
		c-0.34-0.029-0.683-0.059-1.026-0.089c-0.004-0.103-0.009-0.206-0.013-0.309c0.342-0.039,0.684-0.077,1.034-0.117
		c-0.025-0.097-0.07-0.27-0.134-0.514c-0.419,0.182-0.813,0.352-1.241,0.538c0.974-1.125,1.92-1.165,2.852-0.055
		c-0.398-0.173-0.698-0.303-1.022-0.444c-0.114,0.194-0.218,0.37-0.328,0.557c0.211,0.058,0.384,0.105,0.558,0.153
		c-0.014,0.057-0.029,0.114-0.043,0.172C-114.541,17.553-114.698,17.543-114.957,17.526z"/>
	<path d="M-114.921,0.551c0.251,0.343,0.558,0.764,0.839,1.148c-0.278,0.548-0.604,1.192-0.841,1.66
		c-0.228-0.46-0.544-1.096-0.828-1.669C-115.487,1.327-115.168,0.89-114.921,0.551z"/>
	<path d="M-120.839,17.868c0.002,0.046-0.012,0.101,0.009,0.127c0.103,0.124,0.215,0.239,0.352,0.389
		c0.319-0.177,0.641-0.355,1.069-0.593c-0.995,1.251-1.783,1.32-3.009,0.244c0.522,0.183,0.902,0.317,1.308,0.459
		c0.036-0.225,0.064-0.399,0.093-0.576c-0.34,0-0.685,0-1.03,0c-0.015-0.089-0.029-0.178-0.044-0.267
		c0.266-0.05,0.531-0.128,0.799-0.141c0.297-0.014,0.596,0.031,0.945,0.172C-120.497,17.739-120.647,17.795-120.839,17.868z"/>
	<path d="M-104.261,20.105c0.029-0.029,0.055-0.06,0.079-0.094c0.638-0.287,1.276-0.615,1.899,0.031
		C-102.754,20.91-103.731,20.936-104.261,20.105z"/>
	<path d="M-125.788,19.999c0.034,0.038,0.068,0.076,0.102,0.114c-0.557,0.803-1.362,0.805-2.014-0.024
		C-127.09,19.388-126.438,19.717-125.788,19.999z"/>
	<path d="M-102.975,18.956c0.018-0.014,0.035-0.03,0.049-0.047c0.536-0.375,1.077-0.683,1.697-0.157
		c-0.337,0.699-0.839,0.925-1.48,0.637C-102.836,19.331-102.888,19.105-102.975,18.956z"/>
	<path d="M-105.417,18.784c0.607,0.737,0.434,1.398-0.456,1.738C-106.224,19.677-106.083,19.142-105.417,18.784z"/>
	<path d="M-127.018,18.96c0,0-0.017-0.018-0.017-0.018c-0.061,0.15-0.081,0.382-0.189,0.436c-0.616,0.303-1.13,0.088-1.5-0.584
		C-128.141,18.314-127.797,18.348-127.018,18.96z"/>
	<path d="M-124.07,20.521c-0.89-0.311-1.073-0.965-0.486-1.735C-123.886,19.114-123.738,19.641-124.07,20.521z"/>
	<path d="M-102.196,17.881c0.34-0.228,0.659-0.508,1.03-0.663c0.21-0.087,0.506,0.032,0.792,0.062
		c-0.41,1.014-1.212,1.236-1.802,0.585C-102.179,17.866-102.196,17.881-102.196,17.881z"/>
	<path d="M-125.545,18.008c0.565,0.442,0.614,0.884,0.19,1.709C-126.18,19.304-126.255,18.631-125.545,18.008z"/>
	<path d="M-127.789,17.866c-0.582,0.647-1.388,0.423-1.763-0.512c0.442-0.265,0.862-0.236,1.263,0.082
		c0.177,0.14,0.343,0.295,0.515,0.445C-127.772,17.882-127.789,17.866-127.789,17.866z"/>
	<path d="M-104.575,19.717c-0.443-0.738-0.403-1.235,0.137-1.706C-103.709,18.575-103.762,19.24-104.575,19.717z"/>
	<path d="M-101.428,16.646c0.386-0.499,0.748-1.045,1.709-0.703c-0.263,0.316-0.435,0.697-0.711,0.803
		c-0.272,0.104-0.651-0.07-0.985-0.121C-101.417,16.627-101.428,16.646-101.428,16.646z"/>
	<path d="M-103.475,18.754c-0.544-0.679-0.574-1.083-0.122-1.647C-102.827,17.535-102.778,18.203-103.475,18.754z"/>
	<path d="M-126.388,17.106c0.478,0.517,0.461,0.896-0.071,1.638C-127.172,18.266-127.143,17.594-126.388,17.106z"/>
	<path d="M-128.545,16.636c-0.624,0.512-1.305,0.217-1.549-0.673c0.649-0.299,0.892-0.191,1.558,0.69
		C-128.535,16.655-128.545,16.636-128.545,16.636z"/>
	<path d="M-119.483,17.384c-0.389-0.153-0.778-0.306-1.153-0.453c-0.116,0.194-0.206,0.345-0.348,0.583
		c-0.096-0.23-0.159-0.378-0.242-0.577c-0.381,0.201-0.766,0.403-1.17,0.616c0.555-0.808,1.211-1.148,1.863-0.894
		c0.384,0.15,0.719,0.427,1.074,0.65C-119.452,17.313-119.476,17.365-119.483,17.384z"/>
	<path d="M-100.87,15.172c0.346-0.405,0.634-0.915,1.31-0.724c0.016,0.685-0.367,1.123-0.981,1.078
		c-0.113-0.008-0.209-0.243-0.313-0.374C-100.854,15.152-100.87,15.172-100.87,15.172z"/>
	<path d="M-129.103,15.163c0.061,0.32-0.089,0.418-0.387,0.374c-0.599-0.088-0.932-0.416-0.977-1.05
		c0.74-0.274,1.022,0.286,1.38,0.695C-129.087,15.183-129.103,15.163-129.103,15.163z"/>
	<path d="M-102.227,17.407c-0.111,0.092-0.222,0.185-0.332,0.276c-0.64-0.607-0.72-0.997-0.322-1.58
		c0.693,0.212,0.662,0.769,0.633,1.324C-102.247,17.427-102.227,17.407-102.227,17.407z"/>
	<path d="M-127.718,17.43c-0.01-0.544-0.063-1.109,0.626-1.321c0.419,0.536,0.367,0.854-0.276,1.583
		c-0.121-0.092-0.245-0.186-0.369-0.28C-127.738,17.411-127.718,17.43-127.718,17.43z"/>
	<path d="M-101.692,16.438c0,0,0.01-0.024,0.01-0.024c-0.631,0.076-0.991-0.568-0.734-1.315
		C-101.688,15.255-101.565,15.483-101.692,16.438z"/>
	<path d="M-128.213,16.535c-0.012-0.058-0.023-0.116-0.035-0.174c-0.16-0.83-0.053-1.037,0.668-1.283
		C-127.27,15.738-127.478,16.217-128.213,16.535z"/>
	<path d="M-127.894,14.028c0.161,0.66-0.022,0.974-0.723,1.237C-128.878,14.483-128.67,14.126-127.894,14.028z"/>
	<path d="M-102.091,14.022c0.79,0.11,0.967,0.393,0.795,1.219C-101.941,15.118-102.186,14.76-102.091,14.022z"/>
	<path d="M-128.899,14.074c-0.189-0.775,0.013-1.06,0.802-1.136C-127.974,13.563-128.134,13.79-128.899,14.074z"/>
	<path d="M-101.875,12.919c0.818,0.134,0.969,0.347,0.843,1.14C-101.759,13.858-101.954,13.607-101.875,12.919z"/>
	<path d="M-101.83,11.91c0.739-0.051,0.963,0.172,0.925,0.926C-101.611,12.769-101.842,12.538-101.83,11.91z"/>
	<path d="M-129.064,12.879c-0.012-0.783,0.167-0.972,0.899-1C-128.066,12.475-128.258,12.696-129.064,12.879z"/>
	<path d="M-101.983,10.903c0.778-0.113,0.95,0.016,1.093,0.807C-101.445,11.712-101.855,11.559-101.983,10.903z"/>
	<path d="M-127.982,10.891c-0.078,0.651-0.514,0.78-1.017,0.845C-129.043,11.013-128.797,10.8-127.982,10.891z"/>
	<path d="M-127.801,9.971c-0.115,0.583-0.544,0.641-1.021,0.663C-128.791,9.917-128.501,9.728-127.801,9.971z"/>
	<path d="M-102.177,9.92c0.654-0.194,0.979,0.034,1.143,0.719C-101.576,10.613-102.006,10.579-102.177,9.92z"/>
	<path d="M-102.472,9.026c0.751-0.178,0.859-0.124,1.1,0.535C-101.857,9.645-102.267,9.639-102.472,9.026z"/>
	<path d="M-127.442,9.263c-0.354,0.142-0.707,0.283-1.174,0.471c0.234-0.821,0.419-0.912,1.081-0.696
		C-127.504,9.113-127.473,9.188-127.442,9.263z"/>
	<path d="M-101.752,8.293c-0.085,0.13-0.189,0.379-0.252,0.369c-0.305-0.048-0.598-0.166-0.984-0.287
		c0.551-0.556,0.897-0.211,1.259-0.061C-101.729,8.314-101.752,8.293-101.752,8.293z"/>
	<path d="M-127.073,8.446c-0.355,0.097-0.709,0.194-1.155,0.316c0.275-0.763,0.498-0.846,1.107-0.541
		C-127.105,8.296-127.089,8.371-127.073,8.446z"/>
	<path d="M-102.286,7.866c-0.339-0.058-0.678-0.116-1.14-0.196C-102.831,7.119-102.628,7.149-102.286,7.866z"/>
	<path d="M-126.657,7.694c-0.343,0.055-0.685,0.11-1.171,0.188c0.352-0.681,0.703-0.729,1.135-0.459
		C-126.681,7.513-126.669,7.604-126.657,7.694z"/>
	<path d="M-102.675,7.023c-0.441,0-0.762,0-1.129,0C-103.525,6.402-103.265,6.396-102.675,7.023z"/>
	<path d="M-127.208,6.955c0.47-0.524,0.535-0.531,1.07-0.135C-126.431,7.249-126.784,7.159-127.208,6.955z"/>
	<path d="M-126.574,6.088c0,0-0.017,0.019-0.017,0.019c0.363-0.219,0.715-0.342,1.041,0.137
		C-125.961,6.524-126.311,6.646-126.574,6.088z"/>
	<path d="M-103.369,6.115c0,0-0.02-0.022-0.02-0.022c-0.269,0.462-0.508,0.49-0.997,0.108
		C-104.077,5.784-103.731,5.862-103.369,6.115z"/>
	<path d="M-104.034,5.756c-0.301,0.032-0.602,0.065-0.902,0.097c-0.014-0.109-0.029-0.217-0.043-0.326
		c0.301-0.045,0.602-0.09,0.904-0.135C-104.062,5.514-104.048,5.635-104.034,5.756z"/>
	<path d="M-125.896,5.415c0.306,0.03,0.612,0.06,0.918,0.09c-0.009,0.11-0.018,0.22-0.026,0.329
		c-0.303-0.018-0.607-0.036-0.91-0.054C-125.909,5.659-125.902,5.537-125.896,5.415z"/>
</g>
<g>
	<path d="M-144.84,32.74c-0.148-2.343-2.222-2.924-3.78-1.595c0.499,0.298,0.975,0.572,1.441,0.861
		c0.959,0.593,1.684,1.397,1.483,2.58c-0.2,1.175-1.073,1.841-2.199,2.154c-0.605,0.168-1.217,0.309-1.627,0.412
		c0.569,0.48,1.397,0.973,1.944,1.683c1.118,1.452,0.762,3.241-0.727,4.285c-1.183,0.83-2.52,1.178-3.953,1.372
		c-1.906,0.257-3.699-0.134-5.529-0.53c-0.805-0.174-1.678-0.004-2.516-0.059c-1.157-0.076-1.747-0.772-1.691-1.898
		c0.967,0.393,1.936,0.783,2.901,1.182c0.428,0.177,0.792,0.191,1.086-0.25c0.883-1.325,1.808-2.622,2.665-3.963
		c1.166-1.823,2.237-3.709,3.446-5.501c0.552-0.818,1.339-1.478,2.044-2.235c-1.899-0.634-3.858-0.545-5.804-0.084
		c-4.039,0.957-6.95,3.444-8.929,6.99c-1.485,2.66-1.931,5.54-0.725,8.447c0.741,1.786,2.436,2.938,4.685,3.013
		c1.319,0.044,2.65-0.275,3.868-0.419c0.096-0.108,0.049-0.008-0.028,0.024c-2.9,1.234-5.891,1.109-8.322-0.972
		c-1.919-1.642-2.553-3.955-2.109-6.492c1.074-6.137,5.253-9.222,10.81-10.868c2.056-0.609,4.192-0.655,6.277-0.029
		c1.055,0.317,1.831-0.402,2.732-0.624c1.075-0.264,2.441,0.233,3.035,1.12C-143.981,31.911-144.174,32.353-144.84,32.74z
		 M-157.756,43.724c0.946,0.156,1.649,0.321,2.361,0.377c0.741,0.059,1.49,0.018,2.235,0.012c2.35-0.018,3.827-1.163,4.42-3.418
		c0.366-1.394-0.318-2.611-1.791-3.187c-1.491-0.583-2.063-0.313-2.873,1.228C-154.414,40.658-155.407,42.608-157.756,43.724z
		 M-152.381,36.742c0.902,0,1.549,0.044,2.186-0.016c0.407-0.038,0.804-0.219,1.199-0.357c1.133-0.396,2.065-1.531,2.058-2.493
		c-0.006-0.939-0.887-1.863-2.342-2.314C-150.267,33.21-151.278,34.899-152.381,36.742z"/>
	<path d="M-113.651,46.374c0.346,2.386,3.847,3.733,7.8,3.145c-0.972,0.157-1.951,0.48-2.913,0.434
		c-1.731-0.083-3.507-0.468-4.698-1.797c-1.165-1.3-2.435-2.187-4.127-2.612c-0.625-0.157-1.169-0.72-1.698-1.161
		c-0.646-0.538-0.555-1.078,0.192-1.613c0.554,1.876,1.912,2.692,3.793,3.052c-1.01-2.938-0.491-5.593,1.002-8.103
		c2.004-3.369,5.006-5.41,8.716-6.499c2.44-0.717,4.873-1.002,7.421-0.442c0.785,0.173,1.72-0.383,2.596-0.558
		c1.052-0.211,2.316,0.153,2.882,1.056c0.346,0.552,0.417,1.076-0.338,1.394c-0.671-2.366-1.93-2.888-3.862-1.518
		c0.392,0.22,0.743,0.418,1.095,0.615c2.405,1.35,2.87,3.95,0.859,5.463c-0.931,0.7-2.104,1.16-3.237,1.485
		c-1.058,0.304-2.214,0.259-3.317,0.428c-0.27,0.041-0.598,0.263-0.741,0.498c-2.123,3.489-5.352,5.382-9.189,6.387
		C-112.141,46.218-112.904,46.262-113.651,46.374z M-98.084,31.336c0.011-0.106,0.023-0.213,0.034-0.319
		c-1.534-0.058-3.105-0.359-4.594-0.127c-3.736,0.583-6.866,2.368-9.174,5.434c-1.982,2.634-3.027,5.525-2.365,8.878
		c0.107,0.541,0.298,0.783,0.881,0.763c2.519-0.087,4.671-1.067,6.522-2.709c2.194-1.946,3.363-4.612,4.772-7.095
		C-100.964,34.323-99.714,32.682-98.084,31.336z M-101.718,38.807c0.71-0.088,1.237-0.146,1.761-0.22
		c1.503-0.213,2.853-0.728,3.856-1.944c1.65-2.001,1.107-4.25-1.479-5.111C-98.912,33.875-100.272,36.265-101.718,38.807z"/>
	<path d="M-148.304,43.676c0.482-0.404,1.03-0.752,1.433-1.223c0.949-1.11,1.836-2.273,2.73-3.428
		c0.238-0.308,0.423-0.659,0.604-1.006c0.088-0.169,0.187-0.393,0.145-0.558c-0.359-1.421-0.224-1.692,1.334-2.375
		c-0.216,0.605-0.381,1.166-0.616,1.695c-0.245,0.551-0.045,0.896,0.394,1.211c1.414,1.015,1.558,1.592,0.779,3.126
		c-0.327,0.643-0.686,1.27-1.018,1.91c-0.034,0.065,0.016,0.173,0.028,0.263c1.525-0.314,2.563-1.619,5.018-6.287
		c1.082,0.312,1.29,0.708,0.784,1.668c-0.674,1.278-1.402,2.528-2.094,3.797c-0.133,0.243-0.205,0.519-0.388,0.998
		c3.031-1.173,4.061-3.709,5.323-6.106c-0.394-0.062-0.719-0.113-1.044-0.168c-0.014-0.002-0.02-0.048-0.03-0.073
		c0.024-0.047,0.056-0.137,0.072-0.134c1.185,0.197,1.652-0.566,2.158-1.455c1.681-2.952,3.785-5.589,6.515-7.625
		c1.918-1.43,4.174-2.221,6.582-2.169c1.517,0.032,2.925,0.582,3.873,1.963c0.439,0.64,0.266,0.968-0.313,1.301
		c-1.117-3.01-3.212-3.38-6.087-2.651c-3.014,0.764-4.898,2.963-6.566,5.355c-1.131,1.622-2.087,3.366-3.239,5.248
		c0.747,0,1.316,0,1.885,0c0,0.094,0,0.189,0,0.283c-0.336,0.016-0.683,0.092-1.007,0.036c-0.761-0.132-1.198,0.24-1.515,0.854
		c-0.748,1.446-1.506,2.888-2.228,4.347c-0.121,0.244-0.082,0.566-0.117,0.852c0.28,0.018,0.611,0.142,0.831,0.036
		c0.695-0.335,1.383-0.708,2.005-1.161c0.374-0.272,0.622-0.72,1.031-0.976c-0.75,1.288-1.872,2.213-3.244,2.647
		c-1.54,0.486-2.284-0.424-1.82-2.052c-0.798,0.583-1.543,1.219-2.379,1.696c-0.414,0.236-1.097,0.383-1.469,0.196
		c-0.324-0.163-0.382-0.854-0.54-1.265c-0.532,0.368-1.164,0.891-1.872,1.272c-0.949,0.512-1.66,0.043-1.399-0.999
		c0.242-0.965,0.838-1.838,1.246-2.766c0.164-0.373,0.39-0.813,0.319-1.169c-0.07-0.348-0.482-0.628-0.743-0.938
		c-0.195,0.235-0.404,0.46-0.584,0.707c-1.154,1.58-2.282,3.179-3.467,4.735c-0.244,0.321-0.689,0.488-1.041,0.726
		C-148.125,43.9-148.214,43.788-148.304,43.676z"/>
	<path d="M-77.221,42.389c-0.36,0.966-1.241,1.273-2.09,1.497c-0.902,0.238-0.898-0.674-1.203-1.182
		c-0.931,0.546-1.729,1.728-2.986,0.927c-0.403-0.257-0.501-0.99-0.735-1.495c-0.358,0.297-0.913,0.774-1.489,1.224
		c-0.209,0.163-0.458,0.326-0.71,0.371c-0.493,0.088-1.122,0.287-1.466,0.073c-0.318-0.198-0.337-0.876-0.51-1.411
		c0.024-0.008-0.13,0.042-0.283,0.092l0.025,0.021c1.961-3.192,3.813-6.458,5.917-9.552c1.605-2.36,3.559-4.504,6.159-5.831
		c2.051-1.047,4.253-1.874,6.595-1.188c0.908,0.266,1.734,0.962,2.47,1.609c0.495,0.435,0.542,1.08-0.26,1.443
		c-1.104-3.173-3.358-3.327-6.076-2.635c-2.208,0.562-3.763,2.008-5.23,3.7c-2.463,2.842-3.998,6.227-5.866,9.42
		c-0.578,0.987-1.142,1.983-1.682,2.99c-0.16,0.299-0.22,0.652-0.389,1.176c1.702-0.552,2.743-1.559,3.441-2.886
		c0.732-1.393,1.598-2.646,2.934-3.504c0.368-0.237,0.812-0.398,1.243-0.486c0.772-0.158,1.325,0.096,1.362,0.888
		c0.702-0.291,1.415-0.587,2.128-0.882c0.043,0.072,0.085,0.145,0.128,0.217c-1.119,2.075-2.237,4.151-3.356,6.226
		c0.101,0.073,0.202,0.146,0.303,0.219c0.55-0.34,1.101-0.68,1.651-1.019L-77.221,42.389z M-78.486,37.239
		c-0.301,0.097-0.6,0.123-0.813,0.272c-1.791,1.257-2.677,3.123-3.348,5.115c-0.061,0.18,0.051,0.559,0.192,0.631
		c0.196,0.1,0.594,0.098,0.733-0.037c0.662-0.645,1.38-1.278,1.861-2.05C-79.144,40.021-78.203,38.902-78.486,37.239z"/>
	<path d="M-77.196,42.41c1.143-0.665,0.969-2.064,1.673-2.991c1.167-1.539,2.524-2.696,4.572-2.659
		c0.673,0.012,1.275,0.348,1.383,1.054c0.056,0.366-0.114,0.935-0.387,1.139c-0.319,0.239-0.86,0.219-1.306,0.223
		c-0.112,0.001-0.362-0.448-0.318-0.502c0.25-0.306,0.568-0.557,0.867-0.822c0.178-0.158,0.364-0.307,0.546-0.461
		c-0.205-0.098-0.423-0.297-0.614-0.274c-0.433,0.052-0.953,0.094-1.26,0.352c-1.294,1.083-2.331,2.4-2.768,4.052
		c-0.134,0.506-0.025,1.283,0.299,1.641c0.29,0.321,1.046,0.37,1.566,0.303c1.33-0.172,2.336-1,3.118-2.015
		c0.438-0.569,0.557-1.373,0.94-1.997c0.838-1.365,2.067-2.253,3.625-2.664c0.824-0.217,2.027,0.106,2.246,0.597
		c0.28,0.628-0.266,1.914-1.104,2.278c-1.148,0.498-2.335,0.928-3.537,1.274c-0.773,0.223-0.586,0.789-0.649,1.278
		c-0.067,0.513,0.016,0.951,0.616,1.161c1.076,0.376,2.043,0.036,2.901-0.516c0.77-0.495,1.414-1.187,2.138-1.814
		c-0.947,1.757-3.811,3.557-5.677,2.651c-0.653-0.317-1.127-1.003-1.587-1.431c-1.004,0.488-2.139,1.279-3.392,1.582
		c-1.274,0.308-2.727,0.06-3.011-1.731c-0.299,0.091-0.599,0.182-0.901,0.271C-77.221,42.389-77.196,42.41-77.196,42.41z
		 M-67.917,40.332c0.084,0.074,0.168,0.149,0.252,0.223c1.395-0.143,2.845-1.335,3.236-2.699c0.06-0.209-0.032-0.462-0.053-0.695
		c-0.253,0.034-0.609-0.026-0.743,0.118C-66.149,38.274-67.026,39.31-67.917,40.332z"/>
	<path d="M-88.694,42.485c-0.557,0.41-1.079,0.881-1.678,1.216c-0.847,0.473-1.161,0.305-1.552-0.644
		c-0.053-0.129-0.148-0.241-0.179-0.289c-0.587,0.336-1.14,0.704-1.734,0.982c-0.942,0.441-2.088-0.337-1.865-1.318
		c0.552-2.428,1.795-4.402,4.114-5.523c1.051-0.508,1.625-0.224,1.936,0.741c0.708-0.292,1.428-0.588,2.147-0.884
		c-0.903,2.344-2.31,4.283-3.175,6.483c0.068,0.043,0.136,0.087,0.205,0.13c0.601-0.292,1.201-0.584,1.804-0.875
		C-88.669,42.506-88.694,42.485-88.694,42.485z M-90.028,37.201c-0.362,0.117-0.643,0.143-0.843,0.284
		c-1.811,1.28-2.735,3.154-3.382,5.192c-0.054,0.171,0.086,0.515,0.24,0.611c0.159,0.099,0.519,0.081,0.664-0.039
		c0.48-0.399,0.977-0.814,1.332-1.319C-91.056,40.567-89.956,39.242-90.028,37.201z"/>
	<path d="M-122.077,37.087c-0.152-0.006-0.306-0.031-0.456-0.015c-0.418,0.046-1.002-0.037-1.207,0.201
		c-0.257,0.299-0.351,0.903-0.25,1.31c0.184,0.748,0.588,1.438,0.853,2.169c0.458,1.263,0.333,1.802-0.7,2.586
		c-0.91,0.69-2.311,0.819-3.44,0.007c-0.68-0.489-0.991-1.727-0.467-2.639c0.316-0.55,0.995-0.892,1.511-1.327
		c0.087,0.086,0.173,0.173,0.26,0.259c-0.486,0.658-0.973,1.315-1.458,1.974c-0.103,0.14-0.265,0.279-0.282,0.432
		c-0.062,0.578,0.96,1.469,1.698,1.514c0.804,0.048,1.619-0.566,1.519-1.305c-0.114-0.846-0.403-1.676-0.681-2.49
		c-0.377-1.1-0.246-1.886,0.515-2.554c0.589-0.517,1.733-0.631,2.469-0.239c0.043,0.023,0.059,0.096,0.087,0.146
		C-122.106,37.117-122.077,37.087-122.077,37.087z"/>
	<path d="M-128.326,37.14c0.649-0.717,1.299-1.435,1.948-2.152c-0.121-0.03-0.242-0.059-0.364-0.089
		c-0.223-0.39-0.612-0.78-0.614-1.172c-0.002-0.274,0.483-0.647,0.828-0.795c0.234-0.1,0.702,0.02,0.882,0.213
		c0.192,0.206,0.301,0.656,0.214,0.925c-0.367,1.141-1.285,1.835-2.229,2.479c-0.271,0.185-0.576,0.321-0.865,0.479
		C-128.459,37.066-128.392,37.103-128.326,37.14z"/>
	<path d="M-122.106,37.117c0.309,0.35,0.921,0.772,0.858,1.033c-0.105,0.436-0.595,0.84-1.019,1.106
		c-0.146,0.092-0.576-0.265-0.876-0.416c0.146-0.28,0.238-0.615,0.454-0.822c0.171-0.164,0.492-0.172,0.768-0.255
		c-0.052-0.224-0.104-0.449-0.156-0.675C-122.077,37.087-122.106,37.117-122.106,37.117z"/>
	<path d="M-135.808,36.165c-0.382-0.523-0.837-0.989-0.77-1.083c0.262-0.367,0.653-0.745,1.067-0.858
		c0.214-0.058,0.577,0.43,0.873,0.671C-134.968,35.253-135.298,35.611-135.808,36.165z"/>
	<path fill="#FFFFFF" d="M-157.756,43.724c2.349-1.116,3.342-3.066,4.352-4.988c0.81-1.541,1.381-1.811,2.873-1.228
		c1.473,0.576,2.157,1.793,1.791,3.187c-0.592,2.255-2.07,3.4-4.42,3.418c-0.745,0.006-1.494,0.046-2.235-0.012
		C-156.107,44.044-156.811,43.88-157.756,43.724z"/>
	<path fill="#FFFFFF" d="M-152.381,36.742c1.104-1.844,2.115-3.532,3.101-5.18c1.456,0.451,2.336,1.375,2.342,2.314
		c0.006,0.961-0.925,2.097-2.058,2.493c-0.394,0.138-0.791,0.318-1.199,0.357C-150.832,36.786-151.479,36.742-152.381,36.742z"/>
	<path fill="#FFFFFF" d="M-98.084,31.336c-1.63,1.346-2.88,2.987-3.923,4.825c-1.409,2.483-2.578,5.149-4.772,7.095
		c-1.851,1.642-4.003,2.622-6.522,2.709c-0.583,0.02-0.774-0.222-0.881-0.763c-0.662-3.353,0.383-6.244,2.365-8.878
		c2.307-3.066,5.438-4.851,9.174-5.434c1.488-0.232,3.06,0.069,4.594,0.127C-98.061,31.123-98.073,31.229-98.084,31.336z"/>
	<path fill="#FFFFFF" d="M-101.718,38.807c1.446-2.541,2.806-4.932,4.139-7.276c2.587,0.861,3.129,3.11,1.479,5.111
		c-1.003,1.216-2.353,1.731-3.856,1.944C-100.481,38.661-101.008,38.719-101.718,38.807z"/>
	<path fill="#FFFFFF" d="M-78.486,37.239c0.283,1.663-0.658,2.782-1.375,3.93c-0.482,0.772-1.2,1.405-1.861,2.05
		c-0.139,0.135-0.538,0.137-0.733,0.037c-0.141-0.072-0.253-0.451-0.192-0.631c0.672-1.992,1.558-3.858,3.348-5.115
		C-79.086,37.362-78.787,37.336-78.486,37.239z"/>
	<path fill="#FFFFFF" d="M-67.917,40.332c0.892-1.022,1.768-2.059,2.692-3.052c0.135-0.145,0.49-0.084,0.743-0.118
		c0.021,0.233,0.113,0.486,0.053,0.695c-0.391,1.364-1.841,2.555-3.236,2.699C-67.75,40.481-67.834,40.407-67.917,40.332z"/>
	<path fill="#FFFFFF" d="M-90.028,37.201c0.073,2.041-1.027,3.366-1.99,4.73c-0.356,0.504-0.853,0.92-1.332,1.319
		c-0.145,0.12-0.504,0.138-0.664,0.039c-0.154-0.096-0.294-0.44-0.24-0.611c0.647-2.039,1.571-3.912,3.382-5.192
		C-90.672,37.344-90.39,37.319-90.028,37.201z"/>
</g>
<g>
	<path d="M30.586,24.317c-0.898,0.894-1.867,0.797-2.171-0.217c-0.202-0.675,0.022-1.282,0.581-1.572
		c0.604-0.314,1.231-0.175,1.686,0.42c0.659,0.86,0.756,1.811,0.336,2.799c-0.475,1.118-1.319,1.787-2.537,1.919
		c-1.201,0.13-2.06-0.449-2.64-1.443c-0.303-0.52-0.497-1.103-0.715-1.602c-0.353,0.659-0.645,1.424-1.121,2.049
		c-0.95,1.248-2.675,1.353-3.927,0.332c-1.253-1.022-1.537-2.838-0.616-4.018c0.412-0.528,0.927-0.782,1.601-0.504
		c0.606,0.25,0.901,0.744,0.722,1.335c-0.123,0.407-0.461,0.944-0.807,1.038c-0.402,0.109-0.918-0.203-1.412-0.34
		c-0.262,0.66,0.145,1.716,1.07,2.368c0.896,0.632,2.017,0.68,2.716-0.103c0.552-0.618,0.969-1.418,1.243-2.207
		c0.428-1.231,0.362-2.532,0.214-3.892c-0.882,0.284-1.698,0.471-2.638-0.237c0.399-0.04,0.585-0.07,0.772-0.076
		c1.109-0.035,1.674-1.081,1.099-2.039c-0.699-1.164-1.793-1.603-2.895-1.159c-1.166,0.47-1.828,1.678-1.562,2.852
		c0.807-0.807,1.608-0.836,2.051-0.075c0.36,0.619,0.22,1.412-0.313,1.774c-0.59,0.401-1.346,0.265-1.83-0.33
		c-1.313-1.615-0.232-4.277,1.901-4.683c1.064-0.202,1.699,0.035,2.912,1.001c-0.289-1.066-0.578-2.133-0.867-3.199
		c0.053-0.037,0.106-0.075,0.158-0.112c0.481,0.599,0.962,1.197,1.493,1.859c0.51-0.64,0.999-1.253,1.488-1.866
		c0.059,0.031,0.117,0.061,0.176,0.092c-0.289,1.054-0.579,2.108-0.868,3.163c0.04,0.027,0.081,0.054,0.121,0.081
		c0.133-0.115,0.27-0.226,0.4-0.344c1.1-1.007,2.728-0.969,3.856,0.09c1.119,1.05,1.323,2.754,0.463,3.865
		c-0.46,0.595-1.146,0.774-1.75,0.458c-0.543-0.284-0.819-0.945-0.53-1.574c0.15-0.326,0.519-0.732,0.822-0.762
		c0.425-0.042,0.881,0.234,1.343,0.38c0.268-0.656-0.142-1.731-1.057-2.379c-0.94-0.666-2.029-0.604-2.857,0.163
		c-0.808,0.748-1.065,1.538-0.503,2.188c0.342,0.394,0.991,0.522,1.487,0.762c-0.289,0.448-0.788,0.516-2.325,0.139
		c-0.131,2.031-0.206,4.012,1.098,5.732c0.709,0.935,1.787,1.135,2.791,0.62C30.296,26.522,30.852,25.387,30.586,24.317z"/>
	<path d="M15.713,35.419c2.109-1.292,17.094-1.25,18.516-0.202c-0.498,0.578-0.983,1.171-1.507,1.728
		c-0.149,0.158-0.409,0.298-0.619,0.299c-4.669,0.017-9.337,0.018-14.006-0.002c-0.227-0.001-0.534-0.161-0.666-0.345
		C16.984,36.267,16.729,35.456,15.713,35.419z"/>
	<path d="M31.157,27.666c0.417,1.915,1.254,2.337,3.27,1.687c0.053,0.822,0.57,1.054,1.317,1.117
		c0.571,0.048,1.141,0.233,1.684,0.433c0.168,0.062,0.244,0.373,0.362,0.569c-0.209,0.006-0.425,0.05-0.626,0.013
		c-1.016-0.187-2.024-0.54-3.043-0.571c-4.713-0.142-9.429-0.256-14.144-0.254c-1.944,0.001-3.889,0.307-5.829,0.507
		c-0.391,0.04-0.764,0.245-1.153,0.338c-0.184,0.044-0.388,0.005-0.583,0.004c0.102-0.204,0.158-0.533,0.314-0.59
		c0.567-0.208,1.159-0.39,1.756-0.458c0.704-0.08,1.26-0.232,1.227-1.089c2.158,0.575,2.983,0.153,3.281-1.704
		c0.959,0.971,2.134,1.32,3.403,1.207c1.413-0.126,2.077-1.224,2.699-2.37c0.613,1.128,1.272,2.233,2.663,2.365
		C28.997,28.988,30.179,28.701,31.157,27.666z"/>
	<path d="M12.074,35.59c-0.498-0.422-0.996-0.844-1.494-1.266c0,0,0.02,0.021,0.02,0.021c-0.308-0.437-0.616-0.873-0.924-1.31
		l0.021,0.019c-0.309-0.498-0.618-0.995-0.927-1.493c0,0,0.012,0.023,0.012,0.023c-0.227-0.596-0.453-1.192-0.68-1.787l0.02,0.023
		C8.047,29.45,7.973,29.081,7.9,28.723c-1.231-0.144-1.566-0.457-1.545-1.457c0.746-0.136,1.072,0.369,1.464,1.11
		c-0.072-0.536-0.114-0.852-0.156-1.16c-1.14-0.337-1.368-0.622-1.189-1.751c0.46,0.365,0.832,0.661,1.168,0.927
		c0-0.141,0-0.388,0-0.653c-0.68-0.289-1.269-0.651-0.928-1.783c0.403,0.362,0.721,0.648,1.04,0.935
		c0.04-0.001,0.079-0.003,0.119-0.004c-0.133-0.258-0.208-0.579-0.409-0.761c-0.468-0.423-0.7-0.847-0.263-1.576
		c0.311,0.362,0.574,0.669,0.837,0.976c0.051-0.019,0.103-0.037,0.154-0.056c-0.113-0.235-0.181-0.511-0.348-0.698
		c-0.38-0.425-0.519-0.843-0.096-1.508c0.279,0.365,0.504,0.659,0.766,1.001c0.419-0.729-1.108-1.3-0.034-2.111
		c0.175,0.304,0.352,0.613,0.53,0.923c0.04,0.014,0.079,0.028,0.119,0.041c-0.026-0.224,0.016-0.489-0.091-0.662
		c-0.286-0.464-0.368-0.878,0.148-1.392c0.194,0.339,0.363,0.636,0.566,0.99c0.364-0.593-0.671-1.328,0.306-1.869
		c0.121,0.303,0.237,0.594,0.354,0.886c0.045,0.001,0.091,0.003,0.136,0.004c-0.031-0.257-0.107-0.519-0.081-0.77
		c0.032-0.308,0.15-0.608,0.231-0.911c0.09,0.007,0.18,0.015,0.27,0.022c0.085,0.286,0.169,0.572,0.276,0.932
		c0.444-0.475-0.368-1.344,0.627-1.634c0.062,0.293,0.123,0.58,0.195,0.921c0.481-0.397-0.251-1.333,0.74-1.488
		c0.038,0.27,0.076,0.543,0.136,0.968c0.201-0.592,0.356-1.047,0.511-1.503c0.097,0.022,0.195,0.044,0.292,0.066
		c0.016,0.264,0.031,0.529,0.055,0.926c0.233-0.518,0.42-0.933,0.606-1.348c0.078,0.023,0.156,0.046,0.233,0.069
		c0.022,0.247,0.044,0.494,0.066,0.74c0.049,0.004,0.099,0.008,0.148,0.011c0.046-0.221,0.08-0.446,0.141-0.663
		c0.062-0.22,0.15-0.434,0.226-0.65c0.113,0.094,0.226,0.187,0.339,0.281c0.011,0.23,0.022,0.46,0.034,0.71
		c0.234-0.338,0.458-0.661,0.682-0.984c0.071,0.038,0.142,0.077,0.213,0.115c-0.027,0.206-0.053,0.412-0.08,0.619
		c0.401-0.047,0.806-0.094,1.21-0.141c0.016,0.092,0.033,0.184,0.049,0.275c-0.221,0.07-0.44,0.19-0.665,0.203
		c-2.381,0.138-4.235,1.306-5.845,2.959c-0.031,0.032-0.032,0.095-0.046,0.143c0,0,0.021-0.023,0.021-0.023
		c-0.145,0.093-0.314,0.162-0.432,0.281c-2.754,2.787-3.623,8.101-1.903,11.642c0.072,0.147,0.218,0.258,0.33,0.386
		c0.014,0.069,0.028,0.139,0.042,0.208c0.198,0.357,0.395,0.715,0.593,1.072l-0.024-0.023c1.03,1.898,2.641,3.171,4.5,4.176
		c0.283,0.153,0.574,0.29,0.794,0.599c-0.346-0.148-0.692-0.297-1.038-0.445c-1.074,1.088-1.787,1.17-2.617,0.306
		c0.491-0.67,0.702-0.748,2.034-0.665c-0.508-0.307-0.861-0.52-1.214-0.734C12.156,35.681,12.115,35.635,12.074,35.59z"/>
	<path d="M39.407,34.34c-0.482,0.422-0.964,0.843-1.446,1.265c-0.028,0.04-0.06,0.078-0.095,0.113
		c-0.36,0.217-0.719,0.433-1.079,0.65c0.778-0.035,1.443,0.041,1.909,0.702c-0.632,0.952-1.781,0.783-2.616-0.251
		c-0.35,0.145-0.707,0.292-1.065,0.44c-0.024-0.055-0.048-0.11-0.073-0.165c0.207-0.1,0.414-0.2,0.621-0.301
		c1.737-0.846,3.192-2.035,4.339-3.591c0.161-0.219,0.268-0.477,0.401-0.717l-0.023,0.023c0.226-0.405,0.451-0.81,0.677-1.214
		c0,0-0.012,0.029-0.012,0.029c0.876-1.392,1.153-2.945,1.183-4.552c0.034-1.839-0.239-3.616-1.254-5.207L40.9,21.59
		c-0.449-1.047-0.993-2.023-1.989-2.66c0,0,0.023,0.026,0.023,0.026c-0.161-0.217-0.291-0.468-0.487-0.647
		c-1.336-1.222-2.911-2.015-4.653-2.465c-0.445-0.115-0.927-0.087-1.391-0.125c0.013-0.122,0.026-0.243,0.039-0.365
		c0.385,0.052,0.769,0.103,1.192,0.16c-0.029-0.185-0.061-0.387-0.092-0.59c0.066-0.048,0.132-0.096,0.198-0.143
		c0.231,0.301,0.462,0.602,0.695,0.907c0-0.164,0-0.379,0-0.594c0.085-0.04,0.17-0.079,0.255-0.119
		c0.195,0.354,0.391,0.708,0.632,1.146c0.028-0.287,0.05-0.521,0.075-0.774c0.85-0.008,0.402,0.857,0.848,1.192
		c0.022-0.316,0.04-0.569,0.06-0.845c0.894,0.073,0.4,0.913,0.794,1.339c0.06-0.341,0.107-0.606,0.153-0.869
		c0.972,0.141,0.283,1.062,0.733,1.515c0.063-0.372,0.11-0.647,0.163-0.958c0.996,0.248,0.296,1.123,0.625,1.731
		c0.136-0.464,0.219-0.75,0.304-1.038c1.122,0.357-0.013,1.271,0.555,1.76c0.11-0.344,0.206-0.647,0.317-0.995
		c1.028,0.499,0.004,1.282,0.352,1.895c0.191-0.369,0.343-0.661,0.521-1.003c0.538,0.439,0.511,0.843,0.232,1.318
		c-0.116,0.198-0.132,0.455-0.193,0.686c0.06,0.019,0.119,0.038,0.179,0.057c0.164-0.324,0.328-0.649,0.544-1.077
		c0.514,0.613,0.419,1.036,0.077,1.493c-0.137,0.183-0.168,0.445-0.097,0.727c0.224-0.314,0.449-0.628,0.733-1.025
		c0.426,0.68,0.29,1.1-0.092,1.522c-0.171,0.189-0.255,0.457-0.378,0.689c0.055,0.03,0.109,0.06,0.164,0.09
		c0.274-0.316,0.547-0.632,0.853-0.986c0.467,0.728,0.2,1.151-0.269,1.566c-0.198,0.175-0.297,0.462-0.305,0.783
		c0.323-0.292,0.645-0.584,1.032-0.934c0.268,1.048,0.119,1.299-0.904,1.755c0,0.237,0,0.486,0,0.701
		c0.339-0.294,0.695-0.602,1.112-0.964c0.319,1.036,0.001,1.453-1.108,1.694c-0.049,0.331-0.1,0.673-0.132,0.89
		c0.378-0.297,0.803-0.629,1.302-1.02c0.26,1.126-0.166,1.56-1.418,1.678c-0.073,0.357-0.149,0.726-0.224,1.095l0.019-0.024
		c-0.23,0.597-0.459,1.193-0.689,1.79l0.014-0.023c-0.311,0.501-0.622,1.002-0.934,1.502l0.021-0.018
		c-0.298,0.416-0.597,0.833-0.895,1.249C39.449,34.304,39.429,34.323,39.407,34.34z"/>
	<path d="M12.123,28.857c0.404,0.779,1.097,1.124,1.853,0.921c0.647-0.174,1.062-0.765,0.983-1.606
		c-0.153-1.627-0.916-2.943-2.269-3.865c-0.707-0.482-1.375-0.389-1.869,0.131c-0.522,0.55-0.557,1.282-0.175,1.878
		c0.344-0.185,0.68-0.519,0.996-0.501c0.473,0.027,0.749,0.456,0.601,0.95c-0.158,0.529-0.572,0.68-1.091,0.489
		c-0.848-0.311-1.274-1.372-0.928-2.291c0.371-0.984,1.33-1.432,2.273-1.019c0.363,0.159,0.683,0.417,1.038,0.64
		c0-0.432-0.046-0.853,0.009-1.259c0.131-0.954,0.782-1.484,1.725-1.465c0.907,0.019,1.704,0.697,1.812,1.543
		c0.084,0.655-0.25,1.174-0.782,1.166c-0.537-0.007-0.792-0.371-0.776-0.848c0.022-0.682,0.534-0.693,1.058-0.614
		c-0.35-0.774-1.009-1.134-1.748-0.971c-0.708,0.156-1.139,0.69-1.086,1.523c0.102,1.612,0.865,2.9,2.129,3.874
		c0.696,0.536,1.43,0.506,1.949,0.02c0.568-0.531,0.632-1.292,0.232-1.966c-0.323,0.192-0.624,0.476-0.96,0.527
		c-0.179,0.027-0.514-0.316-0.601-0.557c-0.073-0.202,0.037-0.638,0.195-0.721c0.273-0.141,0.692-0.204,0.969-0.095
		c0.846,0.332,1.182,1.434,0.786,2.337c-0.392,0.895-1.318,1.294-2.202,0.907c-0.381-0.166-0.722-0.424-1.083-0.641
		c0,0.468,0.059,0.928-0.012,1.366c-0.142,0.875-0.864,1.409-1.741,1.368c-0.91-0.043-1.7-0.741-1.775-1.586
		c-0.05-0.56,0.077-1.048,0.734-1.12c0.542-0.06,0.781,0.305,0.815,0.792C13.219,28.681,12.884,28.887,12.123,28.857z"/>
	<path d="M38.06,28.816c-0.573,0.117-1.11,0.04-1.041-0.658c0.029-0.288,0.438-0.701,0.735-0.763
		c0.491-0.101,0.757,0.307,0.806,0.799c0.085,0.864-0.616,1.696-1.564,1.862c-0.881,0.154-1.752-0.347-1.924-1.202
		c-0.097-0.48-0.017-0.995-0.017-1.527c-0.405,0.239-0.766,0.512-1.171,0.678c-0.884,0.364-1.793-0.069-2.167-0.982
		c-0.362-0.884-0.015-1.907,0.782-2.295c0.44-0.214,0.932-0.218,1.109,0.252c0.106,0.282-0.042,0.804-0.265,1.036
		c-0.368,0.382-0.805,0.124-1.083-0.56c-0.491,0.597-0.515,1.327-0.065,1.919c0.414,0.544,1.081,0.68,1.777,0.364
		c1.272-0.578,2.613-2.899,2.469-4.293c-0.069-0.666-0.385-1.146-1.078-1.306c-0.696-0.161-1.296,0.133-1.788,0.897
		c0.064,0.025,0.125,0.074,0.175,0.064c0.515-0.102,0.941,0.069,0.881,0.611c-0.034,0.308-0.393,0.757-0.678,0.821
		c-0.523,0.117-0.815-0.294-0.859-0.824c-0.072-0.87,0.66-1.712,1.588-1.835c1.002-0.133,1.8,0.412,1.934,1.374
		c0.058,0.419,0.01,0.854,0.01,1.339c0.351-0.218,0.663-0.459,1.012-0.621c0.912-0.423,1.876-0.039,2.278,0.874
		c0.409,0.928,0.021,2.037-0.841,2.394c-0.505,0.209-0.986,0.104-1.093-0.427c-0.058-0.288,0.19-0.808,0.452-0.957
		c0.523-0.298,0.818,0.118,0.965,0.618c0.519-0.669,0.513-1.401-0.001-1.99c-0.461-0.528-1.117-0.67-1.79-0.237
		c-1.479,0.951-2.293,2.339-2.382,4.101c-0.039,0.779,0.421,1.327,1.076,1.452C37.065,29.941,37.701,29.594,38.06,28.816z"/>
	<path d="M30.44,32.95c0.623,0.325,1.067,0.557,1.521,0.793c0.083-0.264,0.15-0.474,0.196-0.62c-0.41-0.066-0.813-0.13-1.217-0.195
		c0.005-0.118,0.01-0.237,0.014-0.355c0.399-0.021,0.799-0.043,1.225-0.065c-0.02-0.134-0.052-0.342-0.098-0.638
		c-0.542,0.203-1.049,0.392-1.626,0.608c1.432-1.35,2.38-1.303,3.736,0.264c-0.561-0.303-0.972-0.524-1.414-0.762
		c-0.15,0.21-0.286,0.4-0.423,0.592c0.208,0.131,0.403,0.253,0.597,0.376c-0.186,0.021-0.373,0.041-0.622,0.069
		c0.095,0.237,0.185,0.461,0.297,0.743c0.483-0.188,0.969-0.377,1.527-0.594C32.739,34.531,31.759,34.493,30.44,32.95z"/>
	<path d="M25.051,32.627c0.209,0.303,0.343,0.497,0.512,0.743c0.441-0.21,0.863-0.411,1.378-0.657
		c-1.281,1.422-2.206,1.458-3.676,0.069c0.623,0.256,1.064,0.438,1.54,0.633c0.069-0.25,0.126-0.457,0.169-0.614
		c-0.408-0.035-0.818-0.071-1.229-0.106c-0.005-0.123-0.01-0.247-0.015-0.37c0.41-0.046,0.82-0.093,1.239-0.14
		c-0.03-0.117-0.084-0.323-0.16-0.616c-0.502,0.218-0.974,0.422-1.487,0.645c1.167-1.348,2.301-1.396,3.417-0.066
		c-0.477-0.207-0.836-0.363-1.225-0.532c-0.137,0.232-0.262,0.444-0.393,0.667c0.253,0.069,0.46,0.126,0.668,0.183
		c-0.017,0.069-0.035,0.137-0.052,0.206C25.55,32.659,25.362,32.647,25.051,32.627z"/>
	<path d="M25.095,12.289c0.301,0.412,0.668,0.915,1.005,1.376c-0.333,0.656-0.724,1.429-1.008,1.989
		c-0.273-0.551-0.651-1.313-0.992-2C24.417,13.219,24.799,12.695,25.095,12.289z"/>
	<path d="M18.004,33.037c0.003,0.055-0.014,0.121,0.011,0.152c0.123,0.148,0.257,0.287,0.422,0.466
		c0.383-0.212,0.768-0.426,1.281-0.71c-1.192,1.498-2.136,1.582-3.605,0.293c0.625,0.22,1.08,0.379,1.567,0.55
		c0.043-0.269,0.077-0.478,0.111-0.69c-0.408,0-0.821,0-1.234,0c-0.018-0.107-0.035-0.214-0.053-0.32
		c0.319-0.06,0.636-0.154,0.957-0.169c0.355-0.017,0.714,0.037,1.132,0.206C18.414,32.882,18.234,32.95,18.004,33.037z"/>
	<path d="M37.867,35.718c0.035-0.035,0.066-0.072,0.095-0.113c0.764-0.344,1.529-0.737,2.275,0.037
		C39.672,36.682,38.502,36.713,37.867,35.718z"/>
	<path d="M12.074,35.59c0.041,0.045,0.082,0.091,0.123,0.136c-0.667,0.962-1.631,0.965-2.413-0.029
		C10.514,34.858,11.296,35.252,12.074,35.59z"/>
	<path d="M39.407,34.34c0.022-0.017,0.041-0.036,0.059-0.057c0.642-0.449,1.29-0.818,2.033-0.188
		c-0.404,0.837-1.005,1.108-1.773,0.763C39.574,34.79,39.512,34.518,39.407,34.34z"/>
	<path d="M36.482,34.134c0.727,0.883,0.52,1.675-0.546,2.083C35.515,35.205,35.684,34.564,36.482,34.134z"/>
	<path d="M10.601,34.345c0,0-0.02-0.021-0.02-0.021c-0.073,0.179-0.097,0.458-0.226,0.522c-0.738,0.363-1.353,0.105-1.797-0.7
		C9.255,33.572,9.667,33.612,10.601,34.345z"/>
	<path d="M14.133,36.216c-1.066-0.372-1.286-1.156-0.583-2.078C14.353,34.53,14.531,35.162,14.133,36.216z"/>
	<path d="M40.341,33.052c0.408-0.273,0.789-0.609,1.234-0.794c0.252-0.105,0.607,0.039,0.949,0.074
		c-0.491,1.215-1.452,1.48-2.16,0.701C40.362,33.035,40.341,33.052,40.341,33.052z"/>
	<path d="M12.365,33.205c0.676,0.53,0.735,1.06,0.227,2.047C11.605,34.758,11.515,33.952,12.365,33.205z"/>
	<path d="M9.677,33.035c-0.698,0.776-1.662,0.507-2.112-0.613c0.529-0.317,1.032-0.283,1.514,0.098
		c0.213,0.168,0.411,0.354,0.618,0.533C9.697,33.054,9.677,33.035,9.677,33.035z"/>
	<path d="M37.491,35.252c-0.531-0.884-0.483-1.48,0.164-2.044C38.529,33.883,38.465,34.681,37.491,35.252z"/>
	<path d="M41.261,31.573c0.462-0.598,0.896-1.252,2.048-0.842c-0.316,0.378-0.521,0.835-0.852,0.962
		c-0.326,0.125-0.78-0.084-1.18-0.145C41.274,31.55,41.261,31.573,41.261,31.573z"/>
	<path d="M38.809,34.098c-0.652-0.813-0.688-1.298-0.147-1.973C39.585,32.638,39.644,33.438,38.809,34.098z"/>
	<path d="M11.356,32.124c0.572,0.619,0.553,1.074-0.085,1.962C10.416,33.514,10.45,32.709,11.356,32.124z"/>
	<path d="M8.771,31.561c-0.747,0.614-1.563,0.26-1.856-0.806c0.778-0.358,1.069-0.229,1.867,0.827
		C8.783,31.584,8.771,31.561,8.771,31.561z"/>
	<path d="M19.629,32.457c-0.466-0.183-0.932-0.366-1.381-0.543c-0.139,0.233-0.247,0.413-0.416,0.698
		c-0.115-0.275-0.19-0.453-0.29-0.691c-0.457,0.24-0.917,0.482-1.402,0.738c0.665-0.968,1.452-1.376,2.232-1.071
		c0.46,0.18,0.862,0.511,1.287,0.779C19.666,32.372,19.637,32.434,19.629,32.457z"/>
	<path d="M41.93,29.807c0.414-0.485,0.76-1.097,1.57-0.868c0.019,0.821-0.44,1.346-1.176,1.291c-0.135-0.01-0.25-0.292-0.375-0.448
		C41.949,29.783,41.93,29.807,41.93,29.807z"/>
	<path d="M8.103,29.796c0.073,0.384-0.107,0.501-0.463,0.448c-0.718-0.106-1.117-0.498-1.171-1.258
		c0.887-0.328,1.224,0.343,1.653,0.833C8.122,29.82,8.103,29.796,8.103,29.796z"/>
	<path d="M40.303,32.485c-0.133,0.111-0.266,0.221-0.397,0.331c-0.767-0.727-0.863-1.195-0.385-1.893
		c0.83,0.254,0.794,0.921,0.758,1.586C40.28,32.508,40.303,32.485,40.303,32.485z"/>
	<path d="M9.762,32.512c-0.012-0.652-0.076-1.328,0.75-1.583c0.502,0.642,0.44,1.024-0.33,1.897
		c-0.145-0.11-0.293-0.223-0.443-0.336C9.738,32.489,9.762,32.512,9.762,32.512z"/>
	<path d="M40.945,31.323c0,0,0.012-0.029,0.012-0.029c-0.756,0.091-1.187-0.68-0.879-1.576C40.95,29.906,41.097,30.18,40.945,31.323
		z"/>
	<path d="M9.169,31.44c-0.014-0.069-0.028-0.139-0.042-0.208c-0.192-0.994-0.064-1.242,0.8-1.538
		C10.299,30.485,10.05,31.059,9.169,31.44z"/>
	<path d="M9.552,28.436c0.193,0.791-0.026,1.167-0.866,1.482C8.372,28.981,8.622,28.554,9.552,28.436z"/>
	<path d="M40.467,28.429c0.947,0.132,1.159,0.471,0.952,1.461C40.646,29.742,40.353,29.313,40.467,28.429z"/>
	<path d="M8.347,28.491c-0.226-0.929,0.015-1.271,0.961-1.361C9.455,27.879,9.264,28.151,8.347,28.491z"/>
	<path d="M40.726,27.107c0.98,0.161,1.161,0.416,1.01,1.366C40.865,28.233,40.631,27.931,40.726,27.107z"/>
	<path d="M40.779,25.898c0.886-0.061,1.154,0.206,1.109,1.11C41.042,26.928,40.765,26.651,40.779,25.898z"/>
	<path d="M8.149,27.059c-0.014-0.939,0.2-1.164,1.078-1.198C9.345,26.575,9.115,26.84,8.149,27.059z"/>
	<path d="M40.596,24.691c0.932-0.136,1.138,0.019,1.309,0.967C41.24,25.661,40.75,25.478,40.596,24.691z"/>
	<path d="M9.446,24.678c-0.094,0.78-0.616,0.935-1.219,1.012C8.175,24.824,8.469,24.568,9.446,24.678z"/>
	<path d="M9.662,23.576c-0.137,0.698-0.652,0.768-1.223,0.795C8.476,23.51,8.823,23.285,9.662,23.576z"/>
	<path d="M40.364,23.514c0.783-0.233,1.173,0.041,1.37,0.862C41.083,24.345,40.568,24.304,40.364,23.514z"/>
	<path d="M40.011,22.443c0.899-0.213,1.029-0.148,1.318,0.642C40.748,23.185,40.256,23.178,40.011,22.443z"/>
	<path d="M10.092,22.727c-0.424,0.17-0.847,0.34-1.407,0.564c0.281-0.983,0.502-1.092,1.296-0.834
		C10.018,22.547,10.055,22.637,10.092,22.727z"/>
	<path d="M40.873,21.564c-0.102,0.156-0.227,0.454-0.302,0.443c-0.365-0.058-0.717-0.199-1.179-0.344
		c0.66-0.666,1.075-0.252,1.508-0.073C40.9,21.59,40.873,21.564,40.873,21.564z"/>
	<path d="M10.535,21.748c-0.425,0.116-0.85,0.233-1.384,0.379c0.33-0.915,0.596-1.013,1.326-0.648
		C10.497,21.568,10.516,21.658,10.535,21.748z"/>
	<path d="M40.233,21.054c-0.406-0.07-0.812-0.139-1.366-0.234C39.58,20.158,39.824,20.195,40.233,21.054z"/>
	<path d="M11.034,20.847c-0.41,0.066-0.821,0.132-1.403,0.226c0.421-0.816,0.842-0.873,1.36-0.55
		C11.005,20.631,11.019,20.739,11.034,20.847z"/>
	<path d="M39.768,20.043c-0.529,0-0.913,0-1.352,0C38.749,19.299,39.06,19.292,39.768,20.043z"/>
	<path d="M10.373,19.961c0.563-0.627,0.641-0.637,1.282-0.162C11.304,20.314,10.881,20.206,10.373,19.961z"/>
	<path d="M11.133,18.923c0,0-0.021,0.022-0.021,0.023c0.434-0.263,0.856-0.41,1.247,0.164
		C11.868,19.446,11.448,19.591,11.133,18.923z"/>
	<path d="M38.935,18.956c0,0-0.023-0.026-0.023-0.026c-0.322,0.553-0.609,0.588-1.195,0.13
		C38.088,18.559,38.501,18.652,38.935,18.956z"/>
	<path d="M38.139,18.525c-0.36,0.039-0.721,0.078-1.081,0.117c-0.017-0.13-0.034-0.26-0.052-0.39
		c0.361-0.054,0.722-0.108,1.083-0.161C38.105,18.236,38.122,18.38,38.139,18.525z"/>
	<path d="M11.945,18.116c0.366,0.036,0.733,0.072,1.099,0.108c-0.011,0.132-0.021,0.263-0.032,0.395
		c-0.363-0.021-0.727-0.043-1.09-0.064C11.93,18.408,11.937,18.262,11.945,18.116z"/>
</g>
</svg>
